<?xml version="1.0" encoding="UTF-8" standalone="no"?><!DOCTYPE svg PUBLIC "-//W3C//DTD SVG 1.1//EN" "http://www.w3.org/Graphics/SVG/1.1/DTD/svg11.dtd"><svg width="100%" height="100%" viewBox="0 0 453 511" version="1.1" xmlns="http://www.w3.org/2000/svg" xmlns:xlink="http://www.w3.org/1999/xlink" xml:space="preserve" style="fill-rule:evenodd;clip-rule:evenodd;stroke-linecap:round;stroke-linejoin:round;stroke-miterlimit:1.5;"><rect id="PM-logo" x="0" y="0" width="452.44" height="510.847" style="fill:none;"/><g id="PM-logo1"><path d="M115.197,198.316l0,-1.485c0,-6.61 5.359,-11.969 11.969,-11.969c8.133,0 19.381,0 30.423,0c21.148,0 38.291,17.144 38.291,38.291c0,0 0,0 0,0c0,21.319 -17.283,38.601 -38.601,38.601l-15.174,0l0,24.556c0,7.425 -6.028,13.454 -13.454,13.454c-7.425,0 -13.454,-6.029 -13.454,-13.454l0,-87.994l0,0Z" style="fill-opacity:0;"/><path d="M157.589,184.862l0.124,0l0.124,0.001l0.124,0.001l0.123,0.001l0.124,0.002l0.123,0.002l0.123,0.003l0.123,0.003l0.124,0.003l0.123,0.004l0.123,0.004l0.122,0.004l0.123,0.005l0.123,0.005l0.122,0.006l0.123,0.006l0.122,0.006l0.122,0.007l0.122,0.007l0.122,0.008l0.122,0.008l0.122,0.008l0.122,0.009l0.121,0.009l0.122,0.009l0.121,0.01l0.121,0.01l0.122,0.011l0.121,0.011l0.121,0.011l0.12,0.012l0.121,0.012l0.121,0.012l0.12,0.013l0.121,0.013l0.12,0.014l0.12,0.014l0.12,0.014l0.12,0.015l0.12,0.015l0.12,0.015l0.119,0.016l0.12,0.016l0.119,0.017l0.119,0.017l0.12,0.017l0.119,0.017l0.118,0.018l0.119,0.019l0.119,0.018l0.118,0.02l0.119,0.019l0.118,0.02l0.118,0.02l0.118,0.02l0.118,0.021l0.118,0.022l0.118,0.021l0.117,0.022l0.118,0.022l0.117,0.023l0.117,0.023l0.117,0.023l0.117,0.024l0.117,0.024l0.117,0.025l0.116,0.025l0.116,0.025l0.117,0.025l0.116,0.026l0.116,0.026l0.116,0.027l0.115,0.027l0.116,0.027l0.115,0.028l0.116,0.027l0.115,0.029l0.115,0.028l0.115,0.029l0.115,0.03l0.114,0.029l0.115,0.03l0.114,0.031l0.114,0.031l0.114,0.031l0.114,0.031l0.114,0.032l0.114,0.032l0.113,0.032l0.114,0.033l0.113,0.033l0.113,0.034l0.113,0.033l0.113,0.034l0.112,0.035l0.113,0.035l0.112,0.035l0.112,0.035l0.112,0.036l0.112,0.036l0.112,0.037l0.111,0.037l0.112,0.037l0.111,0.037l0.111,0.038l0.111,0.038l0.111,0.038l0.111,0.039l0.11,0.039l0.111,0.04l0.11,0.04l0.11,0.04l0.11,0.04l0.109,0.041l0.11,0.041l0.109,0.041l0.11,0.042l0.109,0.042l0.109,0.043l0.108,0.042l0.109,0.043l0.108,0.044l0.109,0.043l0.108,0.044l0.108,0.045l0.108,0.044l0.107,0.045l0.108,0.045l0.107,0.046l0.107,0.046l0.107,0.046l0.107,0.047l0.106,0.046l0.107,0.047l0.106,0.048l0.106,0.048l0.106,0.048l0.106,0.048l0.105,0.049l0.106,0.049l0.105,0.049l0.105,0.05l0.105,0.05l0.105,0.05l0.104,0.051l0.105,0.051l0.104,0.051l0.104,0.051l0.104,0.052l0.103,0.052l0.104,0.053l0.103,0.052l0.103,0.053l0.103,0.054l0.103,0.053l0.102,0.054l0.103,0.054l0.102,0.055l0.102,0.055l0.102,0.055l0.101,0.055l0.102,0.056l0.101,0.056l0.101,0.056l0.101,0.057l0.101,0.057l0.1,0.057l0.101,0.057l0.1,0.058l0.1,0.058l0.099,0.059l0.1,0.058l0.099,0.059l0.1,0.059l0.099,0.06l0.098,0.06l0.099,0.06l0.098,0.06l0.098,0.061l0.098,0.061l0.098,0.061l0.098,0.062l0.097,0.061l0.097,0.063l0.097,0.062l0.097,0.063l0.097,0.063l0.096,0.063l0.096,0.063l0.096,0.064l0.096,0.064l0.096,0.065l0.095,0.064l0.095,0.065l0.095,0.065l0.095,0.066l0.095,0.066l0.094,0.066l0.094,0.066l0.094,0.067l0.094,0.067l0.093,0.067l0.094,0.067l0.093,0.068l0.093,0.068l0.092,0.068l0.093,0.068l0.092,0.069l0.092,0.069l0.092,0.07l0.092,0.069l0.091,0.07l0.091,0.07l0.091,0.071l0.091,0.07l0.09,0.071l0.091,0.071l0.09,0.072l0.09,0.071l0.089,0.072l0.09,0.073l0.089,0.072l0.089,0.073l0.089,0.073l0.088,0.073l0.088,0.074l0.089,0.074l0.087,0.074l0.088,0.074l0.087,0.075l0.088,0.074l0.087,0.076l0.086,0.075l0.087,0.075l0.086,0.076l0.086,0.076l0.086,0.077l0.086,0.076l0.085,0.077l0.085,0.077l0.085,0.078l0.085,0.077l0.084,0.078l0.084,0.078l0.084,0.079l0.084,0.079l0.083,0.078l0.083,0.08l0.083,0.079l0.083,0.079l0.083,0.08l0.082,0.08l0.082,0.081l0.082,0.08l0.081,0.081l0.082,0.081l0.081,0.082l0.081,0.081l0.08,0.082l0.081,0.082l0.08,0.082l0.08,0.083l0.079,0.083l0.08,0.083l0.079,0.083l0.079,0.083l0.078,0.084l0.079,0.084l0.078,0.084l0.078,0.085l0.077,0.084l0.078,0.085l0.077,0.085l0.077,0.086l0.076,0.085l0.077,0.086l0.076,0.086l0.076,0.086l0.075,0.087l0.076,0.087l0.075,0.086l0.075,0.088l0.074,0.087l0.074,0.088l0.074,0.088l0.074,0.088l0.074,0.088l0.073,0.089l0.073,0.088l0.073,0.089l0.072,0.089l0.073,0.09l0.072,0.09l0.071,0.089l0.072,0.09l0.071,0.091l0.071,0.09l0.071,0.091l0.07,0.091l0.07,0.091l0.07,0.092l0.07,0.091l0.069,0.092l0.069,0.092l0.069,0.092l0.068,0.093l0.068,0.092l0.068,0.093l0.068,0.093l0.067,0.094l0.068,0.093l0.066,0.094l0.067,0.094l0.066,0.094l0.066,0.094l0.066,0.095l0.066,0.095l0.065,0.095l0.065,0.095l0.064,0.095l0.065,0.096l0.064,0.096l0.064,0.096l0.063,0.096l0.063,0.096l0.063,0.097l0.063,0.097l0.063,0.097l0.062,0.097l0.061,0.097l0.062,0.098l0.061,0.098l0.061,0.098l0.061,0.098l0.06,0.098l0.06,0.099l0.06,0.099l0.06,0.099l0.059,0.099l0.059,0.099l0.059,0.1l0.058,0.099l0.058,0.1l0.058,0.1l0.057,0.101l0.057,0.1l0.057,0.101l0.057,0.101l0.056,0.101l0.056,0.101l0.056,0.102l0.055,0.101l0.056,0.102l0.054,0.102l0.055,0.102l0.054,0.103l0.054,0.102l0.054,0.103l0.053,0.103l0.053,0.103l0.053,0.103l0.052,0.104l0.052,0.103l0.052,0.104l0.051,0.104l0.052,0.104l0.05,0.105l0.051,0.104l0.05,0.105l0.05,0.105l0.05,0.105l0.049,0.105l0.049,0.106l0.049,0.105l0.048,0.106l0.048,0.106l0.048,0.106l0.048,0.106l0.047,0.107l0.047,0.106l0.046,0.107l0.046,0.107l0.046,0.107l0.046,0.107l0.045,0.108l0.045,0.108l0.045,0.107l0.044,0.108l0.044,0.108l0.044,0.109l0.043,0.108l0.043,0.109l0.043,0.108l0.042,0.109l0.042,0.109l0.042,0.11l0.041,0.109l0.041,0.11l0.041,0.109l0.04,0.11l0.041,0.11l0.039,0.111l0.04,0.11l0.039,0.11l0.039,0.111l0.038,0.111l0.038,0.111l0.038,0.111l0.037,0.111l0.038,0.112l0.036,0.111l0.037,0.112l0.036,0.112l0.036,0.112l0.035,0.112l0.035,0.112l0.035,0.113l0.035,0.113l0.034,0.112l0.034,0.113l0.033,0.113l0.033,0.114l0.033,0.113l0.032,0.113l0.032,0.114l0.032,0.114l0.032,0.114l0.031,0.114l0.03,0.114l0.031,0.114l0.03,0.115l0.029,0.114l0.03,0.115l0.029,0.115l0.028,0.115l0.029,0.115l0.028,0.116l0.027,0.115l0.027,0.116l0.027,0.115l0.027,0.116l0.026,0.116l0.026,0.116l0.025,0.117l0.026,0.116l0.024,0.117l0.025,0.116l0.024,0.117l0.024,0.117l0.023,0.117l0.023,0.117l0.023,0.117l0.022,0.118l0.022,0.117l0.022,0.118l0.021,0.118l0.021,0.118l0.02,0.118l0.02,0.118l0.02,0.118l0.02,0.119l0.019,0.118l0.018,0.119l0.019,0.119l0.018,0.119l0.017,0.119l0.018,0.119l0.016,0.119l0.017,0.119l0.016,0.12l0.016,0.119l0.015,0.12l0.015,0.12l0.015,0.12l0.014,0.12l0.014,0.12l0.014,0.12l0.013,0.121l0.013,0.12l0.012,0.121l0.012,0.121l0.012,0.121l0.011,0.12l0.011,0.122l0.011,0.121l0.01,0.121l0.01,0.121l0.009,0.122l0.009,0.121l0.009,0.122l0.008,0.122l0.008,0.122l0.008,0.122l0.007,0.122l0.007,0.122l0.006,0.122l0.006,0.123l0.006,0.122l0.005,0.123l0.005,0.123l0.004,0.123l0.004,0.123l0.004,0.123l0.003,0.123l0.003,0.123l0.003,0.123l0.002,0.124l0.002,0.123l0.001,0.124l0.001,0.123l0.001,0.124l0,0.124l0,0.125l-0.001,0.125l-0.001,0.124l-0.001,0.125l-0.002,0.124l-0.002,0.125l-0.003,0.124l-0.003,0.124l-0.003,0.124l-0.004,0.124l-0.004,0.124l-0.004,0.124l-0.005,0.124l-0.006,0.124l-0.005,0.123l-0.006,0.123l-0.007,0.124l-0.007,0.123l-0.007,0.123l-0.007,0.123l-0.008,0.123l-0.009,0.123l-0.009,0.122l-0.009,0.123l-0.009,0.122l-0.01,0.123l-0.01,0.122l-0.011,0.122l-0.011,0.122l-0.011,0.122l-0.012,0.122l-0.012,0.122l-0.013,0.121l-0.013,0.122l-0.013,0.121l-0.014,0.122l-0.014,0.121l-0.014,0.121l-0.015,0.121l-0.015,0.12l-0.016,0.121l-0.016,0.121l-0.016,0.12l-0.017,0.12l-0.017,0.121l-0.017,0.12l-0.018,0.12l-0.018,0.12l-0.018,0.119l-0.019,0.12l-0.019,0.119l-0.02,0.12l-0.02,0.119l-0.02,0.119l-0.021,0.119l-0.021,0.119l-0.021,0.119l-0.022,0.118l-0.022,0.119l-0.023,0.118l-0.023,0.119l-0.023,0.118l-0.023,0.118l-0.024,0.118l-0.025,0.117l-0.024,0.118l-0.025,0.117l-0.026,0.118l-0.025,0.117l-0.026,0.117l-0.027,0.117l-0.027,0.117l-0.027,0.116l-0.027,0.117l-0.028,0.116l-0.028,0.116l-0.029,0.117l-0.029,0.116l-0.029,0.115l-0.029,0.116l-0.03,0.116l-0.031,0.115l-0.03,0.115l-0.031,0.115l-0.031,0.115l-0.032,0.115l-0.032,0.115l-0.032,0.115l-0.033,0.114l-0.033,0.114l-0.034,0.114l-0.033,0.114l-0.034,0.114l-0.035,0.114l-0.034,0.113l-0.036,0.114l-0.035,0.113l-0.036,0.113l-0.036,0.113l-0.036,0.113l-0.037,0.113l-0.037,0.112l-0.038,0.112l-0.037,0.113l-0.038,0.112l-0.039,0.111l-0.039,0.112l-0.039,0.112l-0.039,0.111l-0.04,0.111l-0.04,0.112l-0.04,0.11l-0.041,0.111l-0.041,0.111l-0.042,0.11l-0.041,0.111l-0.042,0.11l-0.043,0.11l-0.043,0.109l-0.043,0.11l-0.043,0.11l-0.044,0.109l-0.044,0.109l-0.044,0.109l-0.045,0.109l-0.045,0.109l-0.045,0.108l-0.046,0.108l-0.046,0.109l-0.046,0.108l-0.046,0.107l-0.047,0.108l-0.048,0.107l-0.047,0.108l-0.048,0.107l-0.048,0.107l-0.049,0.107l-0.048,0.106l-0.049,0.107l-0.05,0.106l-0.05,0.106l-0.05,0.106l-0.05,0.106l-0.051,0.105l-0.051,0.106l-0.051,0.105l-0.051,0.105l-0.052,0.105l-0.053,0.104l-0.052,0.105l-0.053,0.104l-0.053,0.104l-0.054,0.104l-0.053,0.104l-0.054,0.104l-0.055,0.103l-0.054,0.103l-0.055,0.103l-0.056,0.103l-0.055,0.103l-0.056,0.102l-0.056,0.102l-0.057,0.103l-0.056,0.101l-0.057,0.102l-0.058,0.102l-0.057,0.101l-0.058,0.101l-0.059,0.101l-0.058,0.101l-0.059,0.1l-0.059,0.101l-0.06,0.1l-0.059,0.1l-0.06,0.1l-0.061,0.099l-0.06,0.1l-0.061,0.099l-0.061,0.099l-0.062,0.099l-0.061,0.098l-0.062,0.099l-0.063,0.098l-0.062,0.098l-0.063,0.098l-0.064,0.097l-0.063,0.097l-0.064,0.098l-0.064,0.097l-0.064,0.096l-0.065,0.097l-0.065,0.096l-0.065,0.097l-0.065,0.095l-0.066,0.096l-0.066,0.096l-0.066,0.095l-0.067,0.095l-0.067,0.095l-0.067,0.095l-0.067,0.094l-0.068,0.095l-0.068,0.094l-0.068,0.094l-0.069,0.093l-0.068,0.094l-0.07,0.093l-0.069,0.093l-0.069,0.093l-0.07,0.092l-0.07,0.092l-0.071,0.093l-0.071,0.092l-0.071,0.091l-0.071,0.092l-0.071,0.091l-0.072,0.091l-0.072,0.091l-0.072,0.09l-0.073,0.091l-0.073,0.09l-0.073,0.09l-0.073,0.09l-0.074,0.089l-0.074,0.089l-0.074,0.089l-0.074,0.089l-0.075,0.089l-0.075,0.088l-0.075,0.088l-0.075,0.088l-0.076,0.088l-0.076,0.087l-0.076,0.087l-0.077,0.087l-0.077,0.087l-0.077,0.087l-0.077,0.086l-0.077,0.086l-0.078,0.086l-0.078,0.085l-0.078,0.086l-0.079,0.085l-0.079,0.085l-0.079,0.084l-0.079,0.085l-0.079,0.084l-0.08,0.084l-0.08,0.083l-0.08,0.084l-0.081,0.083l-0.081,0.083l-0.081,0.083l-0.081,0.082l-0.081,0.082l-0.082,0.082l-0.082,0.082l-0.082,0.081l-0.083,0.082l-0.083,0.081l-0.083,0.08l-0.083,0.081l-0.083,0.08l-0.084,0.08l-0.084,0.08l-0.084,0.08l-0.084,0.079l-0.085,0.079l-0.085,0.079l-0.085,0.078l-0.085,0.078l-0.086,0.078l-0.086,0.078l-0.086,0.078l-0.086,0.077l-0.086,0.077l-0.087,0.077l-0.087,0.076l-0.087,0.076l-0.088,0.076l-0.087,0.076l-0.088,0.075l-0.088,0.076l-0.089,0.075l-0.088,0.074l-0.089,0.075l-0.089,0.074l-0.089,0.074l-0.09,0.073l-0.09,0.074l-0.09,0.073l-0.09,0.073l-0.09,0.072l-0.091,0.072l-0.09,0.072l-0.091,0.072l-0.092,0.072l-0.091,0.071l-0.092,0.071l-0.092,0.071l-0.092,0.07l-0.092,0.07l-0.093,0.07l-0.093,0.07l-0.093,0.069l-0.093,0.069l-0.093,0.069l-0.094,0.068l-0.094,0.069l-0.094,0.067l-0.094,0.068l-0.095,0.068l-0.094,0.067l-0.095,0.067l-0.095,0.066l-0.096,0.066l-0.095,0.066l-0.096,0.066l-0.096,0.066l-0.096,0.065l-0.096,0.065l-0.097,0.064l-0.097,0.065l-0.097,0.064l-0.097,0.063l-0.097,0.064l-0.098,0.063l-0.098,0.063l-0.098,0.063l-0.098,0.062l-0.098,0.062l-0.099,0.062l-0.099,0.061l-0.099,0.061l-0.099,0.061l-0.099,0.061l-0.1,0.06l-0.1,0.06l-0.1,0.06l-0.1,0.059l-0.1,0.059l-0.101,0.059l-0.1,0.059l-0.101,0.058l-0.101,0.058l-0.102,0.058l-0.101,0.057l-0.102,0.057l-0.102,0.057l-0.102,0.056l-0.102,0.056l-0.103,0.056l-0.102,0.056l-0.103,0.055l-0.103,0.055l-0.103,0.055l-0.104,0.054l-0.103,0.054l-0.104,0.054l-0.104,0.053l-0.104,0.053l-0.105,0.053l-0.104,0.053l-0.105,0.052l-0.105,0.052l-0.105,0.052l-0.105,0.051l-0.105,0.051l-0.106,0.05l-0.105,0.051l-0.106,0.05l-0.106,0.05l-0.107,0.049l-0.106,0.049l-0.107,0.049l-0.107,0.048l-0.107,0.049l-0.107,0.047l-0.107,0.048l-0.107,0.047l-0.108,0.047l-0.108,0.047l-0.108,0.046l-0.108,0.046l-0.108,0.045l-0.109,0.046l-0.109,0.045l-0.108,0.044l-0.109,0.045l-0.109,0.044l-0.11,0.043l-0.109,0.044l-0.11,0.043l-0.11,0.043l-0.11,0.042l-0.11,0.042l-0.11,0.042l-0.111,0.041l-0.11,0.041l-0.111,0.041l-0.111,0.04l-0.111,0.041l-0.111,0.039l-0.112,0.04l-0.111,0.039l-0.112,0.039l-0.112,0.038l-0.112,0.038l-0.112,0.038l-0.112,0.037l-0.113,0.037l-0.112,0.037l-0.113,0.037l-0.113,0.036l-0.113,0.035l-0.114,0.036l-0.113,0.035l-0.113,0.035l-0.114,0.034l-0.114,0.034l-0.114,0.034l-0.114,0.033l-0.114,0.033l-0.115,0.033l-0.114,0.032l-0.115,0.032l-0.115,0.032l-0.115,0.031l-0.115,0.031l-0.115,0.031l-0.116,0.03l-0.115,0.03l-0.116,0.03l-0.116,0.029l-0.116,0.029l-0.116,0.028l-0.116,0.028l-0.117,0.028l-0.116,0.028l-0.117,0.027l-0.117,0.027l-0.117,0.026l-0.117,0.026l-0.117,0.026l-0.117,0.025l-0.118,0.025l-0.117,0.025l-0.118,0.024l-0.118,0.024l-0.118,0.024l-0.118,0.023l-0.118,0.023l-0.118,0.022l-0.119,0.022l-0.119,0.022l-0.118,0.021l-0.119,0.021l-0.119,0.021l-0.119,0.02l-0.12,0.02l-0.119,0.02l-0.119,0.019l-0.12,0.019l-0.12,0.019l-0.12,0.018l-0.12,0.017l-0.12,0.018l-0.12,0.017l-0.12,0.016l-0.121,0.017l-0.12,0.016l-0.121,0.015l-0.121,0.015l-0.121,0.015l-0.121,0.015l-0.121,0.014l-0.121,0.013l-0.122,0.014l-0.121,0.012l-0.122,0.013l-0.121,0.012l-0.122,0.012l-0.122,0.011l-0.122,0.011l-0.122,0.011l-0.123,0.01l-0.122,0.01l-0.122,0.01l-0.123,0.009l-0.123,0.009l-0.122,0.008l-0.123,0.008l-0.123,0.008l-0.123,0.007l-0.124,0.007l-0.123,0.006l-0.123,0.006l-0.124,0.006l-0.124,0.005l-0.123,0.005l-0.124,0.005l-0.124,0.004l-0.124,0.003l-0.124,0.004l-0.124,0.003l-0.125,0.002l-0.124,0.002l-0.124,0.002l-0.125,0.002l-0.125,0.001l-0.125,0l-0.124,0l-15.174,0l0,24.556l0,0.087l-0.001,0.087l-0.001,0.086l-0.002,0.087l-0.002,0.086l-0.003,0.087l-0.004,0.086l-0.004,0.086l-0.005,0.086l-0.005,0.085l-0.006,0.086l-0.006,0.085l-0.007,0.086l-0.007,0.085l-0.008,0.085l-0.008,0.085l-0.009,0.084l-0.009,0.085l-0.01,0.084l-0.011,0.084l-0.011,0.084l-0.011,0.084l-0.012,0.084l-0.013,0.084l-0.013,0.083l-0.013,0.083l-0.014,0.083l-0.015,0.083l-0.015,0.083l-0.016,0.082l-0.016,0.083l-0.016,0.082l-0.017,0.082l-0.018,0.082l-0.018,0.081l-0.018,0.082l-0.019,0.081l-0.02,0.081l-0.02,0.081l-0.02,0.08l-0.021,0.081l-0.022,0.08l-0.022,0.08l-0.022,0.08l-0.023,0.08l-0.024,0.079l-0.024,0.08l-0.024,0.079l-0.025,0.079l-0.025,0.078l-0.026,0.079l-0.026,0.078l-0.027,0.078l-0.027,0.078l-0.027,0.077l-0.029,0.078l-0.028,0.077l-0.029,0.077l-0.03,0.076l-0.029,0.077l-0.031,0.076l-0.031,0.076l-0.031,0.076l-0.032,0.076l-0.032,0.075l-0.032,0.075l-0.033,0.075l-0.034,0.074l-0.034,0.075l-0.034,0.074l-0.035,0.074l-0.035,0.073l-0.036,0.074l-0.036,0.073l-0.036,0.073l-0.037,0.073l-0.038,0.072l-0.038,0.072l-0.038,0.072l-0.038,0.072l-0.04,0.071l-0.039,0.071l-0.04,0.071l-0.04,0.07l-0.041,0.071l-0.041,0.07l-0.042,0.069l-0.042,0.07l-0.042,0.069l-0.043,0.069l-0.043,0.069l-0.043,0.068l-0.044,0.068l-0.045,0.068l-0.045,0.068l-0.045,0.067l-0.045,0.067l-0.046,0.066l-0.046,0.067l-0.047,0.066l-0.047,0.066l-0.048,0.065l-0.048,0.065l-0.048,0.065l-0.049,0.065l-0.049,0.064l-0.049,0.064l-0.05,0.064l-0.05,0.063l-0.05,0.063l-0.051,0.063l-0.051,0.063l-0.052,0.062l-0.052,0.062l-0.052,0.061l-0.053,0.061l-0.053,0.061l-0.054,0.061l-0.053,0.06l-0.054,0.06l-0.055,0.06l-0.055,0.059l-0.055,0.059l-0.055,0.058l-0.056,0.059l-0.057,0.057l-0.056,0.058l-0.057,0.057l-0.057,0.057l-0.058,0.057l-0.058,0.056l-0.058,0.056l-0.059,0.055l-0.059,0.056l-0.059,0.054l-0.059,0.055l-0.06,0.054l-0.061,0.054l-0.06,0.053l-0.061,0.053l-0.061,0.053l-0.062,0.052l-0.062,0.052l-0.062,0.052l-0.062,0.051l-0.063,0.051l-0.063,0.051l-0.063,0.05l-0.064,0.049l-0.064,0.05l-0.064,0.049l-0.065,0.048l-0.065,0.049l-0.065,0.048l-0.066,0.047l-0.065,0.047l-0.067,0.047l-0.066,0.046l-0.067,0.046l-0.067,0.046l-0.067,0.045l-0.067,0.045l-0.068,0.044l-0.068,0.044l-0.069,0.044l-0.068,0.043l-0.069,0.042l-0.069,0.043l-0.07,0.042l-0.07,0.041l-0.07,0.041l-0.07,0.041l-0.071,0.04l-0.07,0.04l-0.071,0.04l-0.072,0.039l-0.071,0.039l-0.072,0.038l-0.072,0.038l-0.073,0.037l-0.072,0.037l-0.073,0.036l-0.074,0.037l-0.073,0.035l-0.074,0.035l-0.073,0.035l-0.075,0.035l-0.074,0.033l-0.075,0.034l-0.074,0.033l-0.075,0.033l-0.076,0.032l-0.075,0.031l-0.076,0.032l-0.076,0.031l-0.076,0.03l-0.077,0.03l-0.077,0.029l-0.077,0.029l-0.077,0.029l-0.077,0.028l-0.078,0.028l-0.077,0.027l-0.078,0.026l-0.079,0.027l-0.078,0.025l-0.079,0.026l-0.079,0.024l-0.079,0.025l-0.079,0.024l-0.079,0.023l-0.08,0.023l-0.08,0.022l-0.08,0.022l-0.08,0.022l-0.081,0.021l-0.081,0.02l-0.08,0.02l-0.082,0.02l-0.081,0.019l-0.081,0.019l-0.082,0.018l-0.082,0.017l-0.082,0.017l-0.082,0.017l-0.082,0.016l-0.083,0.015l-0.082,0.015l-0.083,0.015l-0.083,0.014l-0.083,0.014l-0.084,0.013l-0.083,0.012l-0.084,0.012l-0.084,0.012l-0.084,0.011l-0.084,0.01l-0.085,0.01l-0.084,0.009l-0.085,0.009l-0.085,0.009l-0.085,0.007l-0.085,0.008l-0.085,0.006l-0.086,0.007l-0.085,0.005l-0.086,0.006l-0.086,0.004l-0.086,0.004l-0.086,0.004l-0.086,0.003l-0.087,0.002l-0.086,0.002l-0.087,0.002l-0.087,0l-0.087,0.001l-0.087,-0.001l-0.086,0l-0.087,-0.002l-0.087,-0.002l-0.086,-0.002l-0.086,-0.003l-0.087,-0.004l-0.086,-0.004l-0.085,-0.004l-0.086,-0.006l-0.086,-0.005l-0.085,-0.007l-0.085,-0.006l-0.086,-0.008l-0.085,-0.007l-0.084,-0.009l-0.085,-0.009l-0.085,-0.009l-0.084,-0.01l-0.084,-0.01l-0.084,-0.011l-0.084,-0.012l-0.084,-0.012l-0.083,-0.012l-0.084,-0.013l-0.083,-0.014l-0.083,-0.014l-0.083,-0.015l-0.083,-0.015l-0.082,-0.015l-0.082,-0.016l-0.083,-0.017l-0.082,-0.017l-0.081,-0.017l-0.082,-0.018l-0.081,-0.019l-0.082,-0.019l-0.081,-0.02l-0.081,-0.02l-0.08,-0.02l-0.081,-0.021l-0.08,-0.022l-0.08,-0.022l-0.08,-0.022l-0.08,-0.023l-0.079,-0.023l-0.079,-0.024l-0.08,-0.025l-0.078,-0.024l-0.079,-0.026l-0.079,-0.025l-0.078,-0.027l-0.078,-0.026l-0.078,-0.027l-0.077,-0.028l-0.078,-0.028l-0.077,-0.029l-0.077,-0.029l-0.076,-0.029l-0.077,-0.03l-0.076,-0.03l-0.076,-0.031l-0.076,-0.032l-0.075,-0.031l-0.076,-0.032l-0.075,-0.033l-0.075,-0.033l-0.074,-0.034l-0.075,-0.033l-0.074,-0.035l-0.074,-0.035l-0.073,-0.035l-0.074,-0.035l-0.073,-0.037l-0.073,-0.036l-0.072,-0.037l-0.073,-0.037l-0.072,-0.038l-0.072,-0.038l-0.071,-0.039l-0.072,-0.039l-0.071,-0.04l-0.071,-0.04l-0.07,-0.04l-0.071,-0.041l-0.07,-0.041l-0.069,-0.041l-0.07,-0.042l-0.069,-0.043l-0.069,-0.042l-0.069,-0.043l-0.068,-0.044l-0.068,-0.044l-0.068,-0.044l-0.067,-0.045l-0.068,-0.045l-0.067,-0.046l-0.066,-0.046l-0.067,-0.046l-0.066,-0.047l-0.066,-0.047l-0.065,-0.047l-0.065,-0.048l-0.065,-0.049l-0.065,-0.048l-0.064,-0.049l-0.064,-0.05l-0.064,-0.049l-0.063,-0.05l-0.063,-0.051l-0.063,-0.051l-0.063,-0.051l-0.062,-0.052l-0.062,-0.052l-0.061,-0.052l-0.061,-0.053l-0.061,-0.053l-0.061,-0.053l-0.06,-0.054l-0.06,-0.054l-0.059,-0.055l-0.06,-0.054l-0.059,-0.056l-0.058,-0.055l-0.058,-0.056l-0.058,-0.056l-0.058,-0.057l-0.057,-0.057l-0.057,-0.057l-0.057,-0.058l-0.056,-0.057l-0.056,-0.059l-0.055,-0.058l-0.055,-0.059l-0.055,-0.059l-0.055,-0.06l-0.054,-0.06l-0.054,-0.06l-0.053,-0.061l-0.053,-0.061l-0.053,-0.061l-0.052,-0.061l-0.052,-0.062l-0.052,-0.062l-0.051,-0.063l-0.051,-0.063l-0.05,-0.063l-0.051,-0.063l-0.049,-0.064l-0.05,-0.064l-0.049,-0.064l-0.048,-0.065l-0.049,-0.065l-0.047,-0.065l-0.048,-0.065l-0.047,-0.066l-0.047,-0.066l-0.046,-0.067l-0.046,-0.066l-0.046,-0.067l-0.045,-0.067l-0.044,-0.068l-0.045,-0.068l-0.044,-0.068l-0.043,-0.068l-0.044,-0.069l-0.042,-0.069l-0.043,-0.069l-0.042,-0.07l-0.041,-0.069l-0.041,-0.07l-0.041,-0.071l-0.04,-0.07l-0.04,-0.071l-0.04,-0.071l-0.039,-0.071l-0.038,-0.072l-0.039,-0.072l-0.037,-0.072l-0.038,-0.072l-0.037,-0.073l-0.036,-0.073l-0.036,-0.073l-0.036,-0.074l-0.035,-0.073l-0.035,-0.074l-0.034,-0.074l-0.034,-0.075l-0.034,-0.074l-0.033,-0.075l-0.032,-0.075l-0.033,-0.075l-0.031,-0.076l-0.032,-0.076l-0.03,-0.076l-0.031,-0.076l-0.03,-0.077l-0.029,-0.076l-0.029,-0.077l-0.029,-0.077l-0.028,-0.078l-0.027,-0.077l-0.028,-0.078l-0.026,-0.078l-0.026,-0.078l-0.026,-0.079l-0.025,-0.078l-0.025,-0.079l-0.025,-0.079l-0.024,-0.08l-0.023,-0.079l-0.023,-0.08l-0.022,-0.08l-0.022,-0.08l-0.022,-0.08l-0.021,-0.081l-0.02,-0.08l-0.02,-0.081l-0.02,-0.081l-0.019,-0.081l-0.018,-0.082l-0.018,-0.081l-0.018,-0.082l-0.017,-0.082l-0.017,-0.082l-0.016,-0.083l-0.015,-0.082l-0.015,-0.083l-0.015,-0.083l-0.014,-0.083l-0.013,-0.083l-0.013,-0.083l-0.013,-0.084l-0.012,-0.084l-0.011,-0.084l-0.011,-0.084l-0.011,-0.084l-0.01,-0.084l-0.009,-0.085l-0.009,-0.084l-0.008,-0.085l-0.008,-0.085l-0.008,-0.085l-0.006,-0.086l-0.007,-0.085l-0.005,-0.086l-0.005,-0.085l-0.005,-0.086l-0.004,-0.086l-0.004,-0.086l-0.003,-0.087l-0.002,-0.086l-0.002,-0.087l-0.002,-0.086l0,-0.087l-0.001,-0.087l0,-87.994c0,0 0,-1.485 0,-1.485l0.001,-0.077l0,-0.078l0.002,-0.077l0.001,-0.077l0.002,-0.077l0.003,-0.077l0.003,-0.076l0.004,-0.077l0.004,-0.076l0.005,-0.077l0.005,-0.076l0.005,-0.076l0.006,-0.076l0.007,-0.075l0.007,-0.076l0.007,-0.076l0.008,-0.075l0.008,-0.075l0.009,-0.075l0.01,-0.075l0.009,-0.075l0.011,-0.075l0.01,-0.074l0.011,-0.075l0.012,-0.074l0.012,-0.074l0.012,-0.074l0.013,-0.074l0.014,-0.073l0.014,-0.074l0.014,-0.073l0.015,-0.073l0.015,-0.073l0.015,-0.073l0.016,-0.072l0.017,-0.073l0.017,-0.072l0.017,-0.072l0.018,-0.072l0.018,-0.072l0.019,-0.072l0.019,-0.071l0.019,-0.071l0.02,-0.071l0.021,-0.071l0.021,-0.071l0.021,-0.071l0.021,-0.07l0.023,-0.07l0.022,-0.07l0.023,-0.07l0.023,-0.07l0.024,-0.069l0.024,-0.069l0.025,-0.069l0.025,-0.069l0.025,-0.069l0.026,-0.068l0.026,-0.068l0.027,-0.069l0.027,-0.067l0.027,-0.068l0.028,-0.067l0.028,-0.068l0.029,-0.067l0.029,-0.067l0.029,-0.066l0.03,-0.066l0.03,-0.067l0.03,-0.066l0.031,-0.065l0.032,-0.066l0.031,-0.065l0.032,-0.065l0.033,-0.065l0.033,-0.065l0.033,-0.064l0.034,-0.064l0.034,-0.064l0.034,-0.064l0.035,-0.063l0.035,-0.064l0.035,-0.063l0.036,-0.062l0.036,-0.063l0.037,-0.062l0.037,-0.062l0.037,-0.062l0.038,-0.062l0.038,-0.061l0.038,-0.061l0.039,-0.061l0.039,-0.061l0.04,-0.06l0.039,-0.06l0.04,-0.06l0.041,-0.059l0.041,-0.06l0.041,-0.059l0.042,-0.058l0.041,-0.059l0.043,-0.058l0.042,-0.058l0.043,-0.058l0.043,-0.058l0.044,-0.057l0.044,-0.057l0.044,-0.056l0.045,-0.057l0.045,-0.056l0.045,-0.056l0.046,-0.055l0.045,-0.055l0.047,-0.055l0.046,-0.055l0.047,-0.055l0.047,-0.054l0.048,-0.054l0.048,-0.053l0.048,-0.053l0.048,-0.053l0.049,-0.053l0.049,-0.053l0.049,-0.052l0.05,-0.051l0.05,-0.052l0.05,-0.051l0.051,-0.051l0.051,-0.051l0.051,-0.05l0.052,-0.05l0.051,-0.05l0.053,-0.049l0.052,-0.049l0.053,-0.049l0.053,-0.048l0.053,-0.049l0.054,-0.047l0.053,-0.048l0.055,-0.047l0.054,-0.047l0.055,-0.047l0.055,-0.046l0.055,-0.046l0.056,-0.045l0.055,-0.045l0.056,-0.045l0.057,-0.045l0.057,-0.044l0.056,-0.044l0.058,-0.044l0.057,-0.043l0.058,-0.043l0.058,-0.042l0.058,-0.043l0.059,-0.042l0.058,-0.041l0.059,-0.041l0.06,-0.041l0.059,-0.041l0.06,-0.04l0.06,-0.04l0.061,-0.039l0.06,-0.039l0.061,-0.039l0.061,-0.038l0.061,-0.038l0.062,-0.038l0.062,-0.037l0.062,-0.037l0.062,-0.037l0.063,-0.036l0.062,-0.036l0.063,-0.035l0.064,-0.035l0.063,-0.035l0.064,-0.035l0.064,-0.034l0.064,-0.033l0.064,-0.033l0.065,-0.033l0.065,-0.033l0.065,-0.032l0.065,-0.031l0.066,-0.032l0.066,-0.031l0.065,-0.03l0.067,-0.03l0.066,-0.03l0.067,-0.03l0.066,-0.029l0.067,-0.028l0.068,-0.028l0.067,-0.028l0.068,-0.028l0.068,-0.027l0.068,-0.026l0.068,-0.026l0.068,-0.026l0.069,-0.025l0.069,-0.025l0.069,-0.025l0.069,-0.024l0.07,-0.024l0.069,-0.023l0.07,-0.023l0.07,-0.023l0.07,-0.022l0.07,-0.021l0.071,-0.022l0.071,-0.02l0.071,-0.021l0.071,-0.02l0.071,-0.019l0.071,-0.019l0.072,-0.019l0.072,-0.018l0.072,-0.018l0.072,-0.017l0.072,-0.017l0.073,-0.017l0.072,-0.016l0.073,-0.015l0.073,-0.016l0.073,-0.014l0.074,-0.015l0.073,-0.013l0.074,-0.014l0.073,-0.013l0.074,-0.012l0.074,-0.012l0.075,-0.012l0.074,-0.011l0.074,-0.011l0.075,-0.01l0.075,-0.01l0.075,-0.009l0.075,-0.009l0.075,-0.008l0.076,-0.008l0.075,-0.007l0.076,-0.007l0.075,-0.007l0.076,-0.006l0.076,-0.005l0.077,-0.005l0.076,-0.005l0.076,-0.004l0.077,-0.004l0.077,-0.003l0.076,-0.003l0.077,-0.002l0.077,-0.002l0.078,-0.001l0.077,-0.001l0.077,0l30.423,0Zm-16.378,26.014l0,24.906l0.894,-0.041l15.152,0l0.064,-0.001l0.042,0l0.042,0l0.045,-0.001l0.042,0l0.038,-0.001l0.044,-0.001l0.044,-0.001l0.038,-0.001l0.044,-0.001l0.043,-0.002l0.037,-0.001l0.043,-0.002l0.043,-0.001l0.039,-0.002l0.042,-0.002l0.043,-0.003l0.042,-0.002l0.038,-0.002l0.042,-0.003l0.041,-0.002l0.041,-0.003l0.042,-0.003l0.038,-0.003l0.04,-0.003l0.043,-0.004l0.04,-0.003l0.04,-0.003l0.04,-0.004l0.04,-0.004l0.039,-0.004l0.04,-0.004l0.041,-0.004l0.039,-0.004l0.042,-0.005l0.038,-0.004l0.038,-0.004l0.044,-0.006l0.039,-0.004l0.037,-0.005l0.04,-0.005l0.037,-0.005l0.041,-0.006l0.039,-0.005l0.04,-0.006l0.041,-0.005l0.035,-0.006l0.04,-0.006l0.042,-0.006l0.039,-0.006l0.036,-0.006l0.037,-0.006l0.042,-0.007l0.038,-0.007l0.038,-0.006l0.038,-0.007l0.037,-0.007l0.041,-0.007l0.037,-0.007l0.037,-0.007l0.04,-0.008l0.039,-0.008l0.037,-0.007l0.037,-0.007l0.038,-0.008l0.039,-0.008l0.039,-0.009l0.036,-0.008l0.038,-0.008l0.038,-0.008l0.036,-0.008l0.041,-0.01l0.038,-0.009l0.034,-0.008l0.037,-0.008l0.038,-0.01l0.039,-0.009l0.037,-0.01l0.038,-0.009l0.036,-0.009l0.036,-0.01l0.039,-0.01l0.035,-0.009l0.038,-0.01l0.038,-0.011l0.034,-0.009l0.037,-0.01l0.04,-0.012l0.035,-0.01l0.037,-0.01l0.036,-0.011l0.037,-0.011l0.038,-0.011l0.034,-0.011l0.037,-0.011l0.037,-0.011l0.034,-0.011l0.037,-0.012l0.037,-0.011l0.035,-0.012l0.038,-0.012l0.036,-0.012l0.036,-0.012l0.034,-0.012l0.036,-0.012l0.038,-0.013l0.036,-0.012l0.036,-0.013l0.036,-0.013l0.035,-0.012l0.036,-0.013l0.035,-0.013l0.038,-0.014l0.032,-0.012l0.033,-0.012l0.04,-0.015l0.037,-0.015l0.033,-0.012l0.032,-0.012l0.034,-0.014l0.04,-0.016l0.037,-0.015l0.031,-0.012l0.035,-0.014l0.039,-0.016l0.031,-0.013l0.034,-0.014l0.039,-0.017l0.034,-0.014l0.033,-0.015l0.034,-0.014l0.036,-0.016l0.036,-0.015l0.033,-0.015l0.036,-0.016l0.035,-0.016l0.033,-0.015l0.033,-0.015l0.035,-0.016l0.038,-0.018l0.03,-0.014l0.035,-0.016l0.035,-0.017l0.032,-0.015l0.037,-0.019l0.032,-0.015l0.035,-0.017l0.034,-0.017l0.034,-0.017l0.034,-0.017l0.032,-0.016l0.034,-0.018l0.036,-0.018l0.031,-0.016l0.034,-0.018l0.034,-0.018l0.03,-0.016l0.036,-0.019l0.036,-0.019l0.033,-0.018l0.031,-0.017l0.035,-0.019l0.036,-0.02l0.027,-0.015l0.033,-0.019l0.035,-0.02l0.032,-0.018l0.035,-0.02l0.032,-0.018l0.035,-0.021l0.03,-0.017l0.031,-0.019l0.037,-0.022l0.03,-0.017l0.034,-0.021l0.034,-0.02l0.029,-0.018l0.031,-0.019l0.033,-0.021l0.037,-0.022l0.03,-0.019l0.029,-0.018l0.033,-0.021l0.033,-0.021l0.033,-0.022l0.033,-0.021l0.028,-0.018l0.033,-0.022l0.035,-0.023l0.027,-0.018l0.033,-0.022l0.034,-0.023l0.03,-0.021l0.03,-0.02l0.031,-0.021l0.032,-0.022l0.035,-0.024l0.028,-0.02l0.03,-0.021l0.034,-0.024l0.028,-0.02l0.034,-0.025l0.028,-0.02l0.032,-0.023l0.033,-0.024l0.028,-0.021l0.031,-0.023l0.029,-0.022l0.031,-0.023l0.031,-0.023l0.035,-0.027l0.027,-0.02l0.027,-0.021l0.033,-0.026l0.03,-0.023l0.032,-0.025l0.029,-0.023l0.027,-0.022l0.031,-0.024l0.032,-0.026l0.026,-0.021l0.029,-0.023l0.032,-0.026l0.028,-0.024l0.033,-0.027l0.029,-0.024l0.026,-0.022l0.033,-0.028l0.028,-0.023l0.028,-0.024l0.029,-0.026l0.028,-0.024l0.028,-0.024l0.029,-0.025l0.033,-0.029l0.027,-0.024l0.024,-0.022l0.032,-0.029l0.029,-0.026l0.028,-0.024l0.028,-0.026l0.029,-0.027l0.027,-0.025l0.025,-0.023l0.03,-0.028l0.032,-0.03l0.027,-0.025l0.025,-0.024l0.028,-0.027l0.028,-0.027l0.026,-0.025l0.028,-0.027l0.026,-0.026l0.03,-0.029l0.029,-0.029l0.023,-0.023l0.029,-0.029l0.026,-0.026l0.025,-0.026l0.029,-0.03l0.026,-0.026l0.027,-0.028l0.025,-0.026l0.029,-0.03l0.028,-0.03l0.024,-0.025l0.025,-0.026l0.025,-0.027l0.026,-0.029l0.028,-0.03l0.027,-0.029l0.024,-0.027l0.027,-0.029l0.024,-0.027l0.024,-0.027l0.029,-0.033l0.025,-0.027l0.024,-0.028l0.027,-0.031l0.024,-0.028l0.022,-0.025l0.025,-0.03l0.027,-0.031l0.027,-0.032l0.022,-0.026l0.024,-0.028l0.026,-0.032l0.022,-0.026l0.025,-0.03l0.024,-0.03l0.025,-0.03l0.026,-0.033l0.024,-0.03l0.021,-0.027l0.025,-0.03l0.024,-0.031l0.02,-0.026l0.024,-0.031l0.026,-0.033l0.025,-0.033l0.021,-0.027l0.02,-0.027l0.025,-0.032l0.023,-0.032l0.024,-0.031l0.023,-0.031l0.021,-0.029l0.024,-0.032l0.023,-0.033l0.021,-0.029l0.02,-0.027l0.023,-0.033l0.024,-0.034l0.021,-0.029l0.023,-0.033l0.02,-0.029l0.021,-0.03l0.023,-0.033l0.023,-0.034l0.02,-0.03l0.02,-0.03l0.024,-0.035l0.02,-0.03l0.02,-0.03l0.019,-0.03l0.024,-0.036l0.019,-0.031l0.02,-0.03l0.02,-0.031l0.02,-0.032l0.023,-0.035l0.019,-0.032l0.02,-0.032l0.02,-0.032l0.019,-0.032l0.023,-0.036l0.02,-0.033l0.016,-0.028l0.019,-0.032l0.02,-0.032l0.019,-0.033l0.023,-0.039l0.019,-0.033l0.016,-0.028l0.019,-0.033l0.019,-0.033l0.017,-0.03l0.019,-0.034l0.021,-0.039l0.016,-0.029l0.017,-0.03l0.021,-0.039l0.019,-0.034l0.016,-0.031l0.016,-0.03l0.019,-0.035l0.018,-0.035l0.019,-0.035l0.018,-0.036l0.013,-0.026l0.019,-0.036l0.018,-0.036l0.016,-0.031l0.018,-0.036l0.018,-0.037l0.015,-0.031l0.016,-0.032l0.018,-0.038l0.015,-0.031l0.016,-0.032l0.017,-0.038l0.016,-0.033l0.017,-0.038l0.016,-0.033l0.014,-0.032l0.018,-0.039l0.013,-0.028l0.014,-0.033l0.018,-0.039l0.017,-0.039l0.012,-0.028l0.015,-0.034l0.017,-0.039l0.014,-0.035l0.015,-0.035l0.012,-0.029l0.017,-0.04l0.014,-0.035l0.012,-0.029l0.017,-0.042l0.014,-0.035l0.014,-0.035l0.014,-0.036l0.012,-0.031l0.013,-0.035l0.016,-0.042l0.012,-0.031l0.012,-0.031l0.015,-0.042l0.014,-0.037l0.011,-0.031l0.014,-0.037l0.013,-0.038l0.011,-0.032l0.013,-0.037l0.014,-0.038l0.011,-0.032l0.013,-0.039l0.013,-0.038l0.011,-0.033l0.011,-0.033l0.012,-0.039l0.013,-0.039l0.01,-0.033l0.011,-0.033l0.012,-0.04l0.013,-0.04l0.01,-0.034l0.01,-0.034l0.011,-0.034l0.012,-0.041l0.011,-0.04l0.01,-0.035l0.011,-0.035l0.01,-0.036l0.009,-0.035l0.01,-0.035l0.011,-0.042l0.01,-0.035l0.01,-0.036l0.011,-0.043l0.009,-0.036l0.008,-0.031l0.009,-0.036l0.011,-0.043l0.009,-0.037l0.009,-0.037l0.009,-0.038l0.009,-0.037l0.009,-0.038l0.007,-0.032l0.008,-0.038l0.01,-0.044l0.009,-0.039l0.007,-0.033l0.008,-0.038l0.008,-0.039l0.007,-0.033l0.009,-0.046l0.008,-0.039l0.007,-0.034l0.006,-0.033l0.008,-0.041l0.007,-0.04l0.008,-0.04l0.007,-0.041l0.006,-0.035l0.007,-0.04l0.006,-0.036l0.006,-0.035l0.007,-0.041l0.007,-0.042l0.006,-0.042l0.006,-0.036l0.005,-0.036l0.007,-0.042l0.005,-0.037l0.005,-0.037l0.006,-0.043l0.005,-0.037l0.005,-0.037l0.006,-0.044l0.005,-0.043l0.005,-0.038l0.004,-0.032l0.005,-0.044l0.005,-0.045l0.003,-0.032l0.004,-0.039l0.005,-0.045l0.004,-0.04l0.004,-0.039l0.003,-0.04l0.004,-0.039l0.004,-0.04l0.003,-0.04l0.003,-0.041l0.003,-0.04l0.004,-0.047l0.002,-0.035l0.003,-0.041l0.003,-0.041l0.002,-0.042l0.003,-0.042l0.002,-0.036l0.002,-0.048l0.002,-0.036l0.002,-0.043l0.002,-0.042l0.001,-0.037l0.002,-0.05l0.001,-0.037l0.002,-0.037l0.001,-0.05l0.001,-0.038l0.001,-0.038l0,-0.051l0.001,-0.038l0,-0.039l0.001,-0.045l0,-0.039l0,-0.046l0,-0.044l0,-0.037l-0.001,-0.044l0,-0.043l-0.001,-0.037l0,-0.043l-0.001,-0.042l-0.001,-0.036l-0.001,-0.043l-0.002,-0.048l-0.001,-0.035l-0.001,-0.036l-0.002,-0.047l-0.002,-0.041l-0.001,-0.035l-0.002,-0.041l-0.002,-0.04l-0.003,-0.041l-0.002,-0.04l-0.003,-0.04l-0.002,-0.046l-0.003,-0.039l-0.003,-0.033l-0.002,-0.039l-0.003,-0.039l-0.004,-0.039l-0.003,-0.045l-0.004,-0.038l-0.003,-0.038l-0.004,-0.038l-0.004,-0.044l-0.004,-0.038l-0.003,-0.031l-0.005,-0.043l-0.004,-0.043l-0.004,-0.037l-0.005,-0.037l-0.005,-0.042l-0.004,-0.037l-0.005,-0.036l-0.005,-0.042l-0.005,-0.035l-0.005,-0.036l-0.005,-0.041l-0.006,-0.042l-0.005,-0.034l-0.006,-0.041l-0.006,-0.041l-0.006,-0.034l-0.005,-0.034l-0.007,-0.04l-0.006,-0.04l-0.006,-0.034l-0.007,-0.04l-0.006,-0.039l-0.006,-0.033l-0.007,-0.039l-0.007,-0.039l-0.006,-0.033l-0.009,-0.044l-0.007,-0.039l-0.007,-0.032l-0.007,-0.038l-0.008,-0.038l-0.008,-0.037l-0.006,-0.031l-0.008,-0.038l-0.01,-0.043l-0.008,-0.037l-0.008,-0.036l-0.007,-0.031l-0.008,-0.036l-0.01,-0.042l-0.008,-0.037l-0.009,-0.036l-0.008,-0.035l-0.009,-0.036l-0.009,-0.035l-0.01,-0.041l-0.009,-0.035l-0.009,-0.035l-0.01,-0.035l-0.009,-0.034l-0.01,-0.04l-0.01,-0.035l-0.009,-0.034l-0.011,-0.04l-0.01,-0.033l-0.009,-0.034l-0.012,-0.039l-0.009,-0.033l-0.012,-0.039l-0.012,-0.039l-0.008,-0.027l-0.011,-0.038l-0.012,-0.039l-0.01,-0.032l-0.012,-0.038l-0.011,-0.032l-0.012,-0.037l-0.012,-0.038l-0.01,-0.031l-0.013,-0.037l-0.01,-0.031l-0.013,-0.037l-0.012,-0.037l-0.011,-0.03l-0.015,-0.043l-0.012,-0.035l-0.011,-0.031l-0.013,-0.036l-0.013,-0.035l-0.011,-0.03l-0.013,-0.035l-0.015,-0.041l-0.012,-0.029l-0.013,-0.035l-0.015,-0.04l-0.012,-0.029l-0.013,-0.035l-0.014,-0.034l-0.013,-0.034l-0.014,-0.034l-0.014,-0.034l-0.016,-0.038l-0.014,-0.034l-0.013,-0.033l-0.014,-0.033l-0.014,-0.034l-0.014,-0.032l-0.014,-0.032l-0.017,-0.038l-0.014,-0.033l-0.014,-0.032l-0.017,-0.038l-0.015,-0.032l-0.014,-0.031l-0.017,-0.037l-0.014,-0.031l-0.015,-0.032l-0.017,-0.037l-0.017,-0.035l-0.015,-0.032l-0.015,-0.03l-0.017,-0.036l-0.015,-0.03l-0.014,-0.031l-0.018,-0.035l-0.017,-0.035l-0.018,-0.035l-0.018,-0.036l-0.015,-0.028l-0.015,-0.03l-0.018,-0.034l-0.018,-0.035l-0.018,-0.034l-0.015,-0.029l-0.018,-0.033l-0.018,-0.034l-0.018,-0.033l-0.018,-0.034l-0.016,-0.028l-0.018,-0.033l-0.018,-0.033l-0.019,-0.033l-0.018,-0.032l-0.019,-0.033l-0.018,-0.032l-0.018,-0.032l-0.019,-0.032l-0.018,-0.031l-0.019,-0.032l-0.019,-0.032l-0.019,-0.031l-0.019,-0.032l-0.018,-0.031l-0.019,-0.03l-0.022,-0.036l-0.019,-0.031l-0.019,-0.03l-0.019,-0.03l-0.019,-0.031l-0.022,-0.034l-0.019,-0.03l-0.022,-0.035l-0.019,-0.029l-0.02,-0.03l-0.019,-0.029l-0.019,-0.029l-0.022,-0.034l-0.023,-0.033l-0.022,-0.033l-0.016,-0.024l-0.023,-0.034l-0.022,-0.032l-0.02,-0.028l-0.02,-0.029l-0.022,-0.032l-0.023,-0.032l-0.02,-0.028l-0.022,-0.032l-0.023,-0.031l-0.019,-0.027l-0.023,-0.031l-0.023,-0.032l-0.02,-0.027l-0.023,-0.031l-0.023,-0.03l-0.023,-0.031l-0.02,-0.027l-0.022,-0.03l-0.027,-0.034l-0.02,-0.027l-0.023,-0.029l-0.023,-0.03l-0.021,-0.026l-0.025,-0.033l-0.024,-0.029l-0.023,-0.03l-0.023,-0.028l-0.02,-0.025l-0.024,-0.029l-0.027,-0.033l-0.023,-0.028l-0.023,-0.028l-0.027,-0.032l-0.02,-0.024l-0.024,-0.028l-0.027,-0.032l-0.023,-0.027l-0.024,-0.028l-0.022,-0.026l-0.027,-0.031l-0.025,-0.028l-0.023,-0.027l-0.026,-0.029l-0.025,-0.028l-0.023,-0.026l-0.024,-0.026l-0.027,-0.03l-0.027,-0.029l-0.024,-0.027l-0.023,-0.025l-0.027,-0.029l-0.028,-0.03l-0.023,-0.025l-0.024,-0.025l-0.028,-0.029l-0.026,-0.028l-0.024,-0.025l-0.027,-0.028l-0.024,-0.024l-0.027,-0.028l-0.028,-0.028l-0.024,-0.024l-0.029,-0.03l-0.025,-0.025l-0.024,-0.023l-0.03,-0.03l-0.028,-0.027l-0.024,-0.024l-0.027,-0.026l-0.027,-0.025l-0.028,-0.027l-0.028,-0.027l-0.023,-0.021l-0.03,-0.029l-0.029,-0.027l-0.023,-0.021l-0.031,-0.028l-0.028,-0.027l-0.024,-0.021l-0.03,-0.027l-0.027,-0.025l-0.028,-0.025l-0.027,-0.024l-0.028,-0.024l-0.03,-0.027l-0.027,-0.024l-0.029,-0.025l-0.027,-0.023l-0.028,-0.024l-0.026,-0.023l-0.031,-0.026l-0.028,-0.023l-0.027,-0.023l-0.031,-0.026l-0.027,-0.022l-0.032,-0.026l-0.027,-0.023l-0.027,-0.022l-0.032,-0.025l-0.03,-0.024l-0.027,-0.022l-0.028,-0.022l-0.031,-0.024l-0.031,-0.025l-0.027,-0.021l-0.028,-0.021l-0.03,-0.024l-0.031,-0.024l-0.031,-0.023l-0.027,-0.02l-0.032,-0.024l-0.029,-0.022l-0.028,-0.021l-0.032,-0.023l-0.029,-0.022l-0.03,-0.022l-0.029,-0.021l-0.032,-0.022l-0.032,-0.023l-0.028,-0.02l-0.031,-0.022l-0.03,-0.02l-0.028,-0.02l-0.031,-0.021l-0.033,-0.024l-0.031,-0.021l-0.031,-0.02l-0.031,-0.021l-0.027,-0.018l-0.034,-0.023l-0.03,-0.02l-0.031,-0.02l-0.035,-0.023l-0.026,-0.017l-0.031,-0.02l-0.034,-0.021l-0.03,-0.02l-0.031,-0.019l-0.03,-0.019l-0.032,-0.019l-0.034,-0.021l-0.032,-0.021l-0.031,-0.019l-0.03,-0.018l-0.031,-0.018l-0.031,-0.019l-0.034,-0.02l-0.034,-0.02l-0.029,-0.017l-0.031,-0.018l-0.034,-0.02l-0.034,-0.019l-0.03,-0.017l-0.033,-0.019l-0.033,-0.018l-0.028,-0.016l-0.035,-0.019l-0.033,-0.018l-0.033,-0.018l-0.033,-0.018l-0.03,-0.016l-0.031,-0.017l-0.034,-0.018l-0.037,-0.019l-0.029,-0.015l-0.031,-0.016l-0.037,-0.019l-0.032,-0.017l-0.031,-0.016l-0.033,-0.016l-0.033,-0.016l-0.034,-0.017l-0.033,-0.017l-0.034,-0.016l-0.033,-0.016l-0.033,-0.016l-0.034,-0.016l-0.032,-0.015l-0.033,-0.016l-0.034,-0.016l-0.033,-0.015l-0.034,-0.015l-0.034,-0.016l-0.035,-0.016l-0.032,-0.014l-0.032,-0.014l-0.035,-0.015l-0.036,-0.016l-0.033,-0.014l-0.033,-0.014l-0.035,-0.015l-0.032,-0.014l-0.035,-0.014l-0.034,-0.014l-0.034,-0.014l-0.035,-0.015l-0.035,-0.014l-0.033,-0.013l-0.033,-0.013l-0.037,-0.015l-0.032,-0.012l-0.036,-0.014l-0.034,-0.013l-0.032,-0.012l-0.038,-0.014l-0.034,-0.013l-0.033,-0.012l-0.038,-0.014l-0.033,-0.012l-0.033,-0.012l-0.038,-0.013l-0.033,-0.012l-0.035,-0.012l-0.036,-0.012l-0.035,-0.012l-0.033,-0.011l-0.038,-0.013l-0.035,-0.011l-0.032,-0.011l-0.037,-0.012l-0.037,-0.011l-0.033,-0.011l-0.037,-0.011l-0.037,-0.012l-0.032,-0.01l-0.036,-0.011l-0.036,-0.01l-0.036,-0.011l-0.036,-0.01l-0.036,-0.011l-0.036,-0.01l-0.035,-0.01l-0.035,-0.01l-0.037,-0.01l-0.037,-0.01l-0.034,-0.009l-0.036,-0.01l-0.039,-0.01l-0.034,-0.009l-0.036,-0.009l-0.036,-0.009l-0.037,-0.009l-0.038,-0.01l-0.034,-0.008l-0.036,-0.009l-0.037,-0.008l-0.037,-0.009l-0.039,-0.009l-0.036,-0.008l-0.036,-0.008l-0.035,-0.008l-0.037,-0.008l-0.038,-0.008l-0.037,-0.007l-0.038,-0.008l-0.036,-0.008l-0.037,-0.007l-0.037,-0.007l-0.037,-0.007l-0.039,-0.008l-0.038,-0.007l-0.036,-0.006l-0.036,-0.007l-0.037,-0.007l-0.039,-0.006l-0.039,-0.007l-0.036,-0.006l-0.038,-0.006l-0.039,-0.007l-0.037,-0.005l-0.038,-0.006l-0.037,-0.006l-0.037,-0.005l-0.04,-0.006l-0.039,-0.006l-0.037,-0.005l-0.038,-0.005l-0.038,-0.005l-0.039,-0.005l-0.039,-0.005l-0.039,-0.005l-0.039,-0.004l-0.037,-0.004l-0.04,-0.005l-0.038,-0.004l-0.038,-0.004l-0.041,-0.004l-0.038,-0.004l-0.039,-0.004l-0.04,-0.004l-0.038,-0.003l-0.039,-0.004l-0.041,-0.003l-0.038,-0.003l-0.041,-0.003l-0.039,-0.003l-0.039,-0.003l-0.042,-0.003l-0.038,-0.002l-0.039,-0.003l-0.042,-0.002l-0.039,-0.002l-0.041,-0.002l-0.04,-0.002l-0.04,-0.002l-0.039,-0.002l-0.041,-0.002l-0.042,-0.001l-0.04,-0.001l-0.041,-0.002l-0.04,-0.001l-0.041,-0.001l-0.041,-0.001l-0.042,0l-0.039,-0.001l-0.042,0l-0.042,-0.001l-0.042,0l-0.062,0l-16.357,0Z" style="fill:#ff9800;"/><path d="M219.674,287.44l-0.928,-90.254l13.413,0l37.408,90.254l38.29,-90.254l13.344,0l-0.58,90.254" style="fill:none;stroke:#ff9800;stroke-width:26.01px;"/><path d="M242.853,442.391c-35.117,-0.146 -105.58,-0.453 -118.796,-0.537l-1.694,-0.011c-0.902,-0.043 -1.806,-0.049 -2.705,-0.128c-1.8,-0.158 -3.585,-0.463 -5.335,-0.911c-1.751,-0.448 -3.462,-1.038 -5.117,-1.764c-2.482,-1.088 -4.829,-2.48 -6.973,-4.136c-1.431,-1.104 -2.769,-2.323 -4.002,-3.644c-1.848,-1.981 -3.453,-4.188 -4.767,-6.558c-1.315,-2.369 -2.339,-4.898 -3.042,-7.515c-0.234,-0.872 -0.397,-1.761 -0.596,-2.642l-33.232,-181.466c-0.119,-0.825 -0.269,-1.645 -0.357,-2.474c-0.177,-1.658 -0.229,-3.327 -0.155,-4.993c0.11,-2.498 0.503,-4.983 1.168,-7.393c0.222,-0.803 0.504,-1.588 0.756,-2.383c1.906,-5.312 3.81,-10.625 5.715,-15.937c6.403,-17.867 12.804,-35.735 19.185,-53.61c2.126,-5.955 4.25,-11.911 6.367,-17.87c0.863,-2.428 1.724,-4.856 2.582,-7.286c0.564,-1.599 1.773,-5.092 1.773,-5.092l0.656,-1.908l0.77,-1.865l0.001,-0.003c1.08,-2.187 1.081,-2.188 2.318,-4.29l0.003,-0.005c1.136,-1.664 1.136,-1.664 2.37,-3.257l0.001,-0.001c1.802,-2.012 1.803,-2.013 3.762,-3.873l0.001,-0.001c0.685,-0.553 1.35,-1.134 2.057,-1.66c1.415,-1.053 2.912,-1.991 4.476,-2.807c2.086,-1.087 2.668,-1.232 4.863,-2.062l0.001,-0.001c2.284,-0.66 2.843,-0.897 5.196,-1.278c1.763,-0.287 3.547,-0.43 5.333,-0.43c0.893,0 1.785,0.045 2.676,0.107c0.511,0.036 1.018,0.124 1.527,0.185c0.21,0.009 0.421,0.017 0.632,0.025c1.785,0.062 3.571,0.102 5.357,0.137c2.294,0.045 61.208,0.468 70.374,0.491l0.443,0.001l0,-3.746l0.112,-2.717c0.11,-0.9 0.185,-1.804 0.332,-2.699c0.443,-2.684 1.215,-5.313 2.296,-7.81c0.721,-1.665 1.577,-3.269 2.559,-4.794c1.472,-2.288 3.226,-4.394 5.209,-6.256c1.323,-1.242 2.745,-2.373 4.253,-3.383c2.26,-1.515 4.705,-2.751 7.266,-3.672c2.56,-0.921 5.232,-1.526 7.939,-1.798c0.902,-0.091 1.81,-0.108 2.715,-0.161l53.132,-0.984c0.928,0.021 1.856,0.043 2.783,0.065c0.923,0.099 1.851,0.159 2.769,0.297c2.755,0.413 5.456,1.173 8.022,2.257c1.711,0.723 3.359,1.588 4.926,2.586c2.35,1.496 4.51,3.288 6.415,5.321c1.904,2.032 3.551,4.304 4.891,6.746c0.894,1.629 1.65,3.33 2.26,5.085c0.915,2.631 1.498,5.376 1.73,8.152c0.197,2.342 0.117,6.7 0.117,8.522l1.876,0.251c0.909,0.2 1.827,0.363 2.727,0.601c1.801,0.478 3.559,1.105 5.255,1.877c2.543,1.156 4.938,2.634 7.113,4.387c1.451,1.169 2.801,2.459 4.036,3.854c1.235,1.395 2.35,2.891 3.335,4.473c1.314,2.111 1.506,2.715 2.541,4.968l40.03,97.67c0.285,0.777 0.599,1.543 0.855,2.33c0.512,1.574 0.906,3.185 1.178,4.818c0.409,2.449 0.542,4.943 0.397,7.421c-0.128,2.205 -0.284,2.744 -0.657,4.916l-38.889,184.758c-0.223,0.881 -0.411,1.773 -0.67,2.644c-0.52,1.745 -1.181,3.444 -1.979,5.08c-0.797,1.636 -1.727,3.205 -2.78,4.689c-1.58,2.225 -3.433,4.255 -5.507,6.029c-2.074,1.774 -4.366,3.292 -6.809,4.508c-1.494,0.744 -32.734,1.374 -34.322,1.885c0,0 11.342,-7.029 14.604,-14.622c4.333,-10.086 6.664,-25.545 6.664,-25.545l37.106,-176.284l-40.03,-97.67l-29.371,-0.216l0,-38.562c-17.711,0.328 -35.421,0.656 -53.132,0.983l0,37.087c-1.645,0 -114.349,-0.588 -114.365,-0.54c-0.083,0.258 -31.355,87.698 -35.619,99.587l-0.412,1.147l33.232,181.466c3.295,0.021 6.59,0.042 9.884,0.063c14.704,0.091 78.999,0.369 111.461,0.497l-19.374,-19.83l-1.267,-1.465c-0.361,-0.535 -0.754,-1.05 -1.082,-1.607c-0.984,-1.671 -1.66,-3.519 -1.987,-5.431c-0.219,-1.275 -0.282,-2.572 -0.189,-3.862c0.14,-1.934 0.633,-3.84 1.449,-5.599c0.817,-1.759 1.954,-3.365 3.341,-4.72c0.925,-0.904 1.957,-1.693 3.072,-2.35c1.671,-0.984 3.519,-1.66 5.43,-1.987c0.637,-0.109 1.284,-0.141 1.926,-0.211c0.646,0.007 1.291,0.015 1.937,0.022c1.703,0.227 2.153,0.209 3.795,0.742c1.845,0.598 3.577,1.533 5.089,2.747c0.504,0.404 0.957,0.867 1.435,1.301l46.223,47.314c0.419,0.482 0.866,0.941 1.255,1.448c0.779,1.015 1.433,2.12 1.949,3.291c0.517,1.171 0.891,2.4 1.115,3.66c0.224,1.26 0.297,2.542 0.217,3.819c-0.121,1.914 -0.588,3.804 -1.372,5.554c-0.524,1.168 -1.185,2.269 -1.971,3.279c-0.391,0.505 -0.842,0.96 -1.263,1.44l-46.223,46.722c-1.28,1.146 -1.559,1.5 -3.032,2.402c-1.103,0.675 -2.285,1.214 -3.518,1.606c-1.848,0.587 -3.8,0.834 -5.737,0.728c-1.292,-0.072 -2.57,-0.299 -3.807,-0.677c-1.237,-0.378 -2.424,-0.905 -3.535,-1.568c-1.111,-0.664 -2.137,-1.459 -3.057,-2.369c-1.379,-1.364 -2.505,-2.977 -3.311,-4.741c-0.805,-1.765 -1.286,-3.673 -1.414,-5.608c-0.127,-1.935 0.099,-3.89 0.666,-5.744c0.567,-1.855 1.473,-3.602 2.66,-5.135c0.396,-0.511 0.852,-0.972 1.277,-1.457l18.233,-18.43Z" style="fill:#ff9800;"/></g></svg>