<?xml version="1.0" encoding="utf-8"?>
<!-- Generator: Adobe Illustrator 21.0.2, SVG Export Plug-In . SVG Version: 6.00 Build 0)  -->
<svg version="1.1" id="Layer_1" xmlns="http://www.w3.org/2000/svg" xmlns:xlink="http://www.w3.org/1999/xlink" x="0px" y="0px"
	 viewBox="0 0 1912 700" style="enable-background:new 0 0 1912 700;" xml:space="preserve">
<style type="text/css">
	.st0{fill:none;}
	.st1{fill-opacity:0;}
	.st2{fill:#FE4D01;}
	.st3{fill:none;stroke:#FE4D01;stroke-width:26.01;stroke-linecap:round;stroke-linejoin:round;stroke-miterlimit:1.5;}
	.st4{fill:#375896;}
	.st5{fill-rule:evenodd;clip-rule:evenodd;fill:#0A0000;}
	.st6{fill:#0A0000;}
</style>
<rect id="PM-logo" x="39.7" class="st0" width="619.8" height="699.8"/>
<g id="PM-logo1">
	<path class="st1" d="M197.5,271.7v-2c0-9.1,7.3-16.4,16.4-16.4c11.1,0,26.5,0,41.7,0c29,0,52.5,23.5,52.5,52.5l0,0
		c0,29.2-23.7,52.9-52.9,52.9h-20.8v33.6c0,10.2-8.3,18.4-18.4,18.4c-10.2,0-18.4-8.3-18.4-18.4L197.5,271.7L197.5,271.7
		L197.5,271.7z"/>
	<path class="st2" d="M255.6,253.2h0.2l0.2,0l0.2,0l0.2,0l0.2,0l0.2,0l0.2,0l0.2,0l0.2,0l0.2,0l0.2,0l0.2,0l0.2,0l0.2,0l0.2,0l0.2,0
		l0.2,0l0.2,0l0.2,0l0.2,0l0.2,0l0.2,0l0.2,0l0.2,0l0.2,0l0.2,0l0.2,0l0.2,0l0.2,0l0.2,0l0.2,0l0.2,0l0.2,0l0.2,0l0.2,0l0.2,0l0.2,0
		l0.2,0l0.2,0l0.2,0l0.2,0l0.2,0l0.2,0l0.2,0l0.2,0l0.2,0l0.2,0l0.2,0l0.2,0l0.2,0l0.2,0l0.2,0l0.2,0l0.2,0l0.2,0l0.2,0l0.2,0l0.2,0
		l0.2,0l0.2,0l0.2,0l0.2,0l0.2,0l0.2,0l0.2,0l0.2,0l0.2,0l0.2,0l0.2,0l0.2,0l0.2,0l0.2,0l0.2,0l0.2,0l0.2,0l0.2,0l0.2,0l0.2,0l0.2,0
		l0.2,0l0.2,0l0.2,0l0.2,0l0.2,0l0.2,0l0.2,0l0.2,0l0.2,0l0.2,0l0.2,0l0.2,0l0.2,0l0.2,0l0.2,0l0.2,0l0.2,0l0.2,0l0.2,0l0.2,0l0.2,0
		l0.2,0.1l0.2,0.1l0.2,0.1l0.2,0.1l0.2,0.1l0.2,0.1l0.2,0.1l0.2,0.1l0.2,0.1l0.2,0.1l0.2,0.1l0.2,0.1l0.2,0.1l0.1,0.1l0.2,0.1
		l0.1,0.1l0.2,0.1l0.1,0.1l0.1,0.1l0.1,0.1l0.1,0.1l0.1,0.1l0.1,0.1l0.1,0.1l0.1,0.1l0.1,0.1l0.1,0.1l0.1,0.1l0.1,0.1l0.1,0.1
		l0.1,0.1l0.1,0.1l0.1,0.1l0.1,0.1l0.1,0.1l0.1,0.1l0.1,0.1l0.1,0.1l0.1,0.1l0.1,0.1l0.1,0.1l0.1,0.1l0.1,0.1l0.1,0.1l0.1,0.1
		l0.1,0.1l0.1,0.1l0.1,0.1l0.1,0.1l0.1,0.1l0.1,0.1l0.1,0.1l0.1,0.1l0.1,0.1l0.1,0.1l0.1,0.1l0.1,0.1l0.1,0.1l0.1,0.1l0.1,0.1
		l0.1,0.1l0.1,0.1l0.1,0.1l0.1,0.1l0.1,0.1l0.1,0.1l0.1,0.1l0.1,0.1l0.1,0.1l0.1,0.1l0.1,0.1l0.1,0.1l0.1,0.1l0.1,0.1l0.1,0.1
		l0.1,0.1l0.1,0.1l0.1,0.1l0.1,0.1l0.1,0.1l0.1,0.1l0.1,0.1l0.1,0.1l0.1,0.1l0.1,0.1l0.1,0.1l0.1,0.1l0.1,0.1l0.1,0.1l0.1,0.1
		l0.1,0.1l0.1,0.1l0.1,0.1l0.1,0.1l0.1,0.1l0.1,0.1l0.1,0.1l0.1,0.1l0.1,0.1l0.1,0.1l0.1,0.1l0.1,0.1l0.1,0.1l0.1,0.1l0.1,0.1
		l0.1,0.1l0.1,0.1l0.1,0.1l0.1,0.1l0.1,0.1l0.1,0.1l0.1,0.1l0.1,0.1l0.1,0.1l0.1,0.1l0.1,0.1l0.1,0.1l0.1,0.1l0.1,0.1l0.1,0.1
		l0.1,0.1l0.1,0.1l0.1,0.1l0.1,0.1l0.1,0.1l0.1,0.1l0.1,0.1l0.1,0.1l0.1,0.1l0.1,0.1l0.1,0.1l0.1,0.1l0.1,0.1l0.1,0.1l0.1,0.1
		l0.1,0.1l0.1,0.1l0.1,0.1l0.1,0.1l0.1,0.1l0.1,0.1l0.1,0.1l0.1,0.1l0.1,0.1l0.1,0.1l0.1,0.1l0.1,0.1l0.1,0.1l0.1,0.1l0.1,0.1
		l0.1,0.1l0.1,0.1l0.1,0.1l0.1,0.1l0.1,0.1l0.1,0.1l0.1,0.1l0.1,0.1l0.1,0.1l0.1,0.1l0.1,0.1l0.1,0.1l0.1,0.1l0.1,0.1l0.1,0.1
		l0.1,0.1l0.1,0.1l0.1,0.1l0.1,0.1l0.1,0.1l0.1,0.1l0.1,0.1l0.1,0.1l0.1,0.1l0.1,0.1l0.1,0.1l0.1,0.1l0.1,0.1l0.1,0.1l0.1,0.1
		l0.1,0.1l0.1,0.1l0.1,0.1l0.1,0.1l0.1,0.1l0.1,0.1l0.1,0.1l0.1,0.1l0.1,0.1l0.1,0.1l0.1,0.1l0.1,0.1l0.1,0.1l0.1,0.1l0.1,0.1
		l0.1,0.1l0.1,0.1l0.1,0.1l0.1,0.1l0.1,0.1l0.1,0.1l0.1,0.1l0.1,0.1l0.1,0.1l0.1,0.1l0.1,0.1l0.1,0.1l0.1,0.1l0.1,0.1l0.1,0.1
		l0.1,0.1l0.1,0.1l0.1,0.1l0.1,0.1l0.1,0.1l0.1,0.1l0.1,0.1l0.1,0.1l0.1,0.1l0.1,0.1l0.1,0.1l0.1,0.1l0.1,0.1l0.1,0.1l0.1,0.1
		l0.1,0.1l0.1,0.1l0.1,0.1l0.1,0.1l0.1,0.1l0.1,0.1l0.1,0.1l0.1,0.1l0.1,0.1l0.1,0.1l0.1,0.1l0.1,0.1l0.1,0.1l0.1,0.1l0.1,0.1
		l0.1,0.1l0.1,0.1l0.1,0.1l0.1,0.1l0.1,0.1l0.1,0.1l0.1,0.1l0.1,0.1l0.1,0.1l0.1,0.1l0.1,0.1l0.1,0.1l0.1,0.1l0.1,0.1l0.1,0.1
		l0.1,0.1l0.1,0.1l0.1,0.1l0.1,0.1l0.1,0.1l0.1,0.1l0.1,0.1l0.1,0.1l0.1,0.1l0.1,0.1l0.1,0.1l0.1,0.1l0.1,0.1l0.1,0.1l0.1,0.1
		l0.1,0.1l0.1,0.1l0.1,0.1l0.1,0.1l0.1,0.1l0.1,0.1l0.1,0.1l0.1,0.1l0.1,0.1l0.1,0.1l0.1,0.1l0.1,0.1l0.1,0.1l0.1,0.1l0.1,0.1
		l0.1,0.1l0.1,0.1l0.1,0.1l0.1,0.1l0.1,0.1l0.1,0.1l0.1,0.1l0.1,0.1l0.1,0.1l0.1,0.1l0.1,0.2l0.1,0.1l0.1,0.2l0.1,0.1l0.1,0.2
		l0.1,0.2l0.1,0.2l0.1,0.2l0.1,0.2l0.1,0.2l0.1,0.2l0.1,0.2l0.1,0.2l0.1,0.2l0.1,0.2l0,0.2l0.1,0.2l0,0.2l0,0.2l0,0.2l0,0.2l0,0.2
		l0,0.2l0,0.2l0,0.2l0,0.2l0,0.2l0,0.2l0,0.2l0,0.2l0,0.2l0,0.2l0,0.2l0,0.2l0,0.2l0,0.2l0,0.2l0,0.2l0,0.2l0,0.2l0,0.2l0,0.2l0,0.2
		l0,0.2l0,0.2l0,0.2l0,0.2l0,0.2l0,0.2l0,0.2l0,0.2l0,0.2l0,0.2l0,0.2l0,0.2l0,0.2l0,0.2l0,0.2l0,0.2l0,0.2l0,0.2l0,0.2l0,0.2l0,0.2
		l0,0.2l0,0.2l0,0.2l0,0.2l0,0.2l0,0.2l0,0.2l0,0.2l0,0.2l0,0.2l0,0.2l0,0.2l0,0.2l0,0.2l0,0.2l0,0.2l0,0.2l0,0.2l0,0.2l0,0.2l0,0.2
		l0,0.2l0,0.2l0,0.2l0,0.2l0,0.2l0,0.2l0,0.2l0,0.2l0,0.2l0,0.2l0,0.2l0,0.2l0,0.2l0,0.2l0,0.2l0,0.2l0,0.2l0,0.2l0,0.2l0,0.2l0,0.2
		l0,0.2l0,0.2l0,0.2l0,0.2l0,0.2l0,0.2l0,0.2l0,0.2l0,0.2l0,0.2v0.2v0.2l0,0.2l0,0.2l0,0.2l0,0.2l0,0.2l0,0.2l0,0.2l0,0.2l0,0.2
		l0,0.2l0,0.2l0,0.2l0,0.2l0,0.2l0,0.2l0,0.2l0,0.2l0,0.2l0,0.2l0,0.2l0,0.2l0,0.2l0,0.2l0,0.2l0,0.2l0,0.2l0,0.2l0,0.2l0,0.2l0,0.2
		l0,0.2l0,0.2l0,0.2l0,0.2l0,0.2l0,0.2l0,0.2l0,0.2l0,0.2l0,0.2l0,0.2l0,0.2l0,0.2l0,0.2l0,0.2l0,0.2l0,0.2l0,0.2l0,0.2l0,0.2l0,0.2
		l0,0.2l0,0.2l0,0.2l0,0.2l0,0.2l0,0.2l0,0.2l0,0.2l0,0.2l0,0.2l0,0.2l0,0.2l0,0.2l0,0.2l0,0.2l0,0.2l0,0.2l0,0.2l0,0.2l0,0.2l0,0.2
		l0,0.2l0,0.2l0,0.2l0,0.2l0,0.2l0,0.2l0,0.2l0,0.2l0,0.2l0,0.2l0,0.2l0,0.2l0,0.2l0,0.2l0,0.2l0,0.2l0,0.2l0,0.2l0,0.2l0,0.2l0,0.2
		l0,0.2l0,0.2l0,0.2l0,0.2l0,0.2l0,0.2l-0.1,0.2l-0.1,0.2l-0.1,0.2l-0.1,0.2l-0.1,0.2l-0.1,0.2l-0.1,0.2l-0.1,0.2l-0.1,0.2l-0.1,0.2
		l-0.1,0.2l-0.1,0.2l-0.1,0.2l-0.1,0.2l-0.1,0.2l-0.1,0.2l-0.1,0.2l-0.1,0.2l-0.1,0.1l-0.1,0.2l-0.1,0.2l-0.1,0.1l-0.1,0.1l-0.1,0.1
		l-0.1,0.1L304,326l-0.1,0.1l-0.1,0.1l-0.1,0.1l-0.1,0.1l-0.1,0.1l-0.1,0.1l-0.1,0.1l-0.1,0.1l-0.1,0.1l-0.1,0.1l-0.1,0.1l-0.1,0.1
		l-0.1,0.1l-0.1,0.1l-0.1,0.1l-0.1,0.1l-0.1,0.1l-0.1,0.1l-0.1,0.1l-0.1,0.1l-0.1,0.1l-0.1,0.1l-0.1,0.1l-0.1,0.1l-0.1,0.1l-0.1,0.1
		l-0.1,0.1l-0.1,0.1l-0.1,0.1l-0.1,0.1l-0.1,0.1l-0.1,0.1l-0.1,0.1l-0.1,0.1l-0.1,0.1l-0.1,0.1l-0.1,0.1l-0.1,0.1l-0.1,0.1l-0.1,0.1
		l-0.1,0.1L301,332l-0.1,0.1l-0.1,0.1l-0.1,0.1l-0.1,0.1l-0.1,0.1l-0.1,0.1l-0.1,0.1l-0.1,0.1l-0.1,0.1l-0.1,0.1l-0.1,0.1l-0.1,0.1
		l-0.1,0.1l-0.1,0.1l-0.1,0.1l-0.1,0.1l-0.1,0.1l-0.1,0.1l-0.1,0.1l-0.1,0.1l-0.1,0.1l-0.1,0.1l-0.1,0.1l-0.1,0.1l-0.1,0.1l-0.1,0.1
		l-0.1,0.1l-0.1,0.1l-0.1,0.1l-0.1,0.1l-0.1,0.1l-0.1,0.1l-0.1,0.1l-0.1,0.1l-0.1,0.1l-0.1,0.1l-0.1,0.1l-0.1,0.1l-0.1,0.1l-0.1,0.1
		l-0.1,0.1l-0.1,0.1l-0.1,0.1l-0.1,0.1l-0.1,0.1l-0.1,0.1l-0.1,0.1l-0.1,0.1l-0.1,0.1l-0.1,0.1l-0.1,0.1l-0.1,0.1l-0.1,0.1l-0.1,0.1
		l-0.1,0.1l-0.1,0.1l-0.1,0.1l-0.1,0.1l-0.1,0.1l-0.1,0.1l-0.1,0.1l-0.1,0.1l-0.1,0.1l-0.1,0.1l-0.1,0.1l-0.1,0.1l-0.1,0.1l-0.1,0.1
		l-0.1,0.1l-0.1,0.1l-0.1,0.1l-0.1,0.1l-0.1,0.1l-0.1,0.1l-0.1,0.1l-0.1,0.1l-0.1,0.1l-0.1,0.1l-0.1,0.1l-0.1,0.1l-0.1,0.1l-0.1,0.1
		l-0.1,0.1l-0.1,0.1l-0.1,0.1l-0.1,0.1l-0.1,0.1l-0.1,0.1l-0.1,0.1l-0.1,0.1l-0.1,0.1l-0.1,0.1l-0.1,0.1l-0.1,0.1l-0.1,0.1l-0.1,0.1
		l-0.1,0.1l-0.1,0.1l-0.1,0.1l-0.1,0.1l-0.1,0.1l-0.1,0.1l-0.1,0.1l-0.1,0.1l-0.1,0.1l-0.1,0.1l-0.1,0.1l-0.1,0.1l-0.1,0.1l-0.1,0.1
		l-0.1,0.1l-0.1,0.1l-0.1,0.1l-0.1,0.1l-0.1,0.1l-0.1,0.1l-0.1,0.1l-0.1,0.1l-0.1,0.1l-0.1,0.1l-0.1,0.1l-0.1,0.1l-0.1,0.1l-0.1,0.1
		l-0.1,0.1l-0.1,0.1l-0.1,0.1l-0.1,0.1l-0.1,0.1l-0.1,0.1l-0.1,0.1l-0.1,0.1l-0.1,0.1l-0.1,0.1l-0.1,0.1l-0.1,0.1l-0.1,0.1l-0.1,0.1
		l-0.1,0.1l-0.1,0.1l-0.1,0.1l-0.1,0.1l-0.1,0.1l-0.1,0.1l-0.1,0.1l-0.1,0.1l-0.1,0.1l-0.1,0.1l-0.1,0.1l-0.1,0.1l-0.1,0.1l-0.1,0.1
		l-0.1,0.1l-0.1,0.1l-0.1,0.1l-0.1,0.1l-0.1,0.1l-0.1,0.1l-0.1,0.1l-0.1,0.1l-0.1,0.1l-0.1,0.1l-0.1,0.1l-0.1,0.1l-0.1,0.1l-0.1,0.1
		l-0.1,0.1l-0.1,0.1l-0.1,0.1l-0.1,0.1l-0.1,0.1l-0.1,0.1l-0.1,0.1l-0.1,0.1l-0.1,0.1l-0.1,0.1l-0.1,0.1l-0.1,0.1l-0.1,0.1l-0.1,0.1
		l-0.1,0.1l-0.1,0.1l-0.1,0.1l-0.1,0.1l-0.1,0.1l-0.1,0.1l-0.1,0.1l-0.1,0.1l-0.1,0.1l-0.1,0.1l-0.1,0.1l-0.1,0.1l-0.1,0.1l-0.1,0.1
		l-0.1,0.1l-0.1,0.1l-0.1,0.1l-0.1,0.1l-0.1,0.1l-0.1,0.1l-0.1,0.1l-0.1,0.1l-0.1,0.1l-0.1,0.1l-0.1,0.1l-0.1,0.1l-0.1,0.1l-0.1,0.1
		l-0.1,0.1l-0.1,0.1l-0.1,0.1l-0.1,0.1l-0.1,0.1l-0.1,0.1l-0.1,0.1l-0.1,0.1l-0.1,0.1l-0.1,0.1l-0.1,0.1l-0.1,0.1l-0.1,0.1l-0.1,0.1
		l-0.2,0.1l-0.1,0.1l-0.2,0.1l-0.2,0.1l-0.2,0.1l-0.2,0.1l-0.2,0.1l-0.2,0.1l-0.2,0.1l-0.2,0.1l-0.2,0.1l-0.2,0.1l-0.2,0.1l-0.2,0.1
		l-0.2,0.1l-0.2,0.1l-0.2,0.1l-0.2,0.1l-0.2,0.1l-0.2,0.1l-0.2,0.1l-0.2,0.1l-0.2,0.1l-0.2,0l-0.2,0l-0.2,0l-0.2,0l-0.2,0l-0.2,0
		l-0.2,0l-0.2,0l-0.2,0l-0.2,0l-0.2,0l-0.2,0l-0.2,0l-0.2,0l-0.2,0l-0.2,0l-0.2,0l-0.2,0l-0.2,0l-0.2,0l-0.2,0l-0.2,0l-0.2,0l-0.2,0
		l-0.2,0l-0.2,0l-0.2,0l-0.2,0l-0.2,0l-0.2,0l-0.2,0l-0.2,0l-0.2,0l-0.2,0l-0.2,0l-0.2,0l-0.2,0l-0.2,0l-0.2,0l-0.2,0l-0.2,0l-0.2,0
		l-0.2,0l-0.2,0l-0.2,0l-0.2,0l-0.2,0l-0.2,0l-0.2,0l-0.2,0l-0.2,0l-0.2,0l-0.2,0l-0.2,0l-0.2,0l-0.2,0l-0.2,0l-0.2,0l-0.2,0l-0.2,0
		l-0.2,0l-0.2,0l-0.2,0l-0.2,0l-0.2,0l-0.2,0l-0.2,0l-0.2,0l-0.2,0l-0.2,0l-0.2,0l-0.2,0l-0.2,0l-0.2,0l-0.2,0l-0.2,0l-0.2,0l-0.2,0
		l-0.2,0l-0.2,0l-0.2,0l-0.2,0l-0.2,0l-0.2,0l-0.2,0l-0.2,0l-0.2,0l-0.2,0l-0.2,0l-0.2,0l-0.2,0l-0.2,0l-0.2,0l-0.2,0l-0.2,0l-0.2,0
		l-0.2,0h-0.2h-0.2h-20.8v33.6v0.1l0,0.1l0,0.1l0,0.1l0,0.1l0,0.1l0,0.1l0,0.1l0,0.1l0,0.1l0,0.1l0,0.1l0,0.1l0,0.1l0,0.1l0,0.1
		l0,0.1l0,0.1l0,0.1l0,0.1l0,0.1l0,0.1l0,0.1l0,0.1l0,0.1l0,0.1l0,0.1l0,0.1l0,0.1l0,0.1l0,0.1l0,0.1l0,0.1l0,0.1l0,0.1l0,0.1l0,0.1
		l0,0.1l0,0.1l0,0.1l0,0.1l0,0.1l0,0.1l0,0.1l0,0.1l0,0.1l0,0.1l0,0.1l0,0.1l0,0.1l0,0.1l0,0.1l0,0.1l0,0.1l0,0.1l0,0.1l0,0.1l0,0.1
		l0,0.1l0,0.1l0,0.1l0,0.1l0,0.1l0,0.1l0,0.1l0,0.1l0,0.1l0,0.1l0,0.1l0,0.1l0,0.1l0,0.1l0,0.1l0,0.1l0,0.1l-0.1,0.1l-0.1,0.1
		l-0.1,0.1l-0.1,0.1l-0.1,0.1l-0.1,0.1l-0.1,0.1l-0.1,0.1l-0.1,0.1l-0.1,0.1l-0.1,0.1l-0.1,0.1l-0.1,0.1l-0.1,0.1l-0.1,0.1l-0.1,0.1
		l-0.1,0.1l-0.1,0.1l-0.1,0.1l-0.1,0.1l-0.1,0.1l-0.1,0.1l-0.1,0.1l-0.1,0.1l-0.1,0.1l-0.1,0.1l-0.1,0.1l-0.1,0.1l-0.1,0.1l-0.1,0.1
		l-0.1,0.1l-0.1,0.1l-0.1,0.1l-0.1,0.1l-0.1,0.1l-0.1,0.1l-0.1,0.1l-0.1,0.1l-0.1,0.1l-0.1,0.1l-0.1,0.1l-0.1,0.1l-0.1,0.1l-0.1,0.1
		l-0.1,0.1l-0.1,0.1l-0.1,0.1l-0.1,0.1l-0.1,0.1l-0.1,0.1l-0.1,0.1l-0.1,0.1l-0.1,0.1l-0.1,0.1l-0.1,0.1l-0.1,0.1l-0.1,0.1l-0.1,0.1
		l-0.1,0.1l-0.1,0.1l-0.1,0.1l-0.1,0.1l-0.1,0.1l-0.1,0.1l-0.1,0.1l-0.1,0.1l-0.1,0.1l-0.1,0.1l-0.1,0.1l-0.1,0.1l-0.1,0.1l-0.1,0.1
		l-0.1,0.1l-0.1,0.1l-0.1,0.1l-0.1,0.1L227,407l-0.1,0.1l-0.1,0.1l-0.1,0.1l-0.1,0.1l-0.1,0.1l-0.1,0.1l-0.1,0.1l-0.1,0.1l-0.1,0.1
		l-0.1,0.1l-0.1,0.1l-0.1,0.1l-0.1,0.1l-0.1,0.1l-0.1,0.1l-0.1,0.1l-0.1,0.1l-0.1,0.1l-0.1,0.1l-0.1,0.1l-0.1,0.1l-0.1,0.1l-0.1,0.1
		l-0.1,0.1l-0.1,0.1l-0.1,0.1l-0.1,0.1l-0.1,0.1l-0.1,0.1l-0.1,0l-0.1,0.1l-0.1,0l-0.1,0l-0.1,0l-0.1,0l-0.1,0l-0.1,0l-0.1,0l-0.1,0
		l-0.1,0l-0.1,0l-0.1,0l-0.1,0l-0.1,0l-0.1,0l-0.1,0l-0.1,0l-0.1,0l-0.1,0l-0.1,0l-0.1,0l-0.1,0l-0.1,0l-0.1,0l-0.1,0l-0.1,0l-0.1,0
		l-0.1,0l-0.1,0l-0.1,0l-0.1,0l-0.1,0l-0.1,0l-0.1,0l-0.1,0l-0.1,0l-0.1,0l-0.1,0l-0.1,0l-0.1,0l-0.1,0l-0.1,0l-0.1,0l-0.1,0l-0.1,0
		l-0.1,0l-0.1,0l-0.1,0l-0.1,0l-0.1,0l-0.1,0l-0.1,0l-0.1,0l-0.1,0l-0.1,0l-0.1,0l-0.1,0l-0.1,0l-0.1,0l-0.1,0l-0.1,0l-0.1,0l-0.1,0
		l-0.1,0l-0.1,0l-0.1,0l-0.1,0l-0.1,0l-0.1,0l-0.1,0l-0.1,0l-0.1,0h-0.1l-0.1,0l-0.1,0h-0.1l-0.1,0l-0.1,0l-0.1,0l-0.1,0l-0.1,0
		l-0.1,0l-0.1,0l-0.1,0l-0.1,0l-0.1,0l-0.1,0l-0.1,0l-0.1,0l-0.1,0l-0.1,0l-0.1,0l-0.1,0l-0.1,0l-0.1,0l-0.1,0l-0.1,0l-0.1,0l-0.1,0
		l-0.1,0l-0.1,0l-0.1,0l-0.1,0l-0.1,0l-0.1,0l-0.1,0l-0.1,0l-0.1,0l-0.1,0l-0.1,0l-0.1,0l-0.1,0l-0.1,0l-0.1,0l-0.1,0l-0.1,0l-0.1,0
		l-0.1,0l-0.1,0l-0.1,0l-0.1,0l-0.1,0l-0.1,0l-0.1,0l-0.1,0l-0.1,0l-0.1,0l-0.1,0l-0.1,0l-0.1,0l-0.1,0l-0.1,0l-0.1,0l-0.1,0l-0.1,0
		l-0.1,0l-0.1,0l-0.1,0l-0.1,0l-0.1,0l-0.1,0l-0.1,0l-0.1,0l-0.1,0l-0.1,0l-0.1,0l-0.1,0l-0.1-0.1l-0.1,0l-0.1-0.1l-0.1-0.1
		l-0.1-0.1l-0.1-0.1l-0.1-0.1l-0.1-0.1l-0.1-0.1l-0.1-0.1l-0.1-0.1l-0.1-0.1l-0.1-0.1l-0.1-0.1l-0.1-0.1l-0.1-0.1l-0.1-0.1l-0.1-0.1
		l-0.1-0.1l-0.1-0.1l-0.1-0.1l-0.1-0.1l-0.1-0.1l-0.1-0.1l-0.1-0.1l-0.1-0.1l-0.1-0.1l-0.1-0.1l-0.1-0.1L205,407l-0.1-0.1l-0.1-0.1
		l-0.1-0.1l-0.1-0.1l-0.1-0.1l-0.1-0.1l-0.1-0.1l-0.1-0.1l-0.1-0.1l-0.1-0.1l-0.1-0.1l-0.1-0.1l-0.1-0.1l-0.1-0.1l-0.1-0.1l-0.1-0.1
		l-0.1-0.1l-0.1-0.1l-0.1-0.1l-0.1-0.1l-0.1-0.1l-0.1-0.1l-0.1-0.1l-0.1-0.1l-0.1-0.1l-0.1-0.1l-0.1-0.1l-0.1-0.1l-0.1-0.1l-0.1-0.1
		l-0.1-0.1l-0.1-0.1l-0.1-0.1l-0.1-0.1l-0.1-0.1l-0.1-0.1l-0.1-0.1l-0.1-0.1l-0.1-0.1l-0.1-0.1l-0.1-0.1l-0.1-0.1l-0.1-0.1l-0.1-0.1
		l-0.1-0.1l-0.1-0.1l-0.1-0.1l-0.1-0.1l-0.1-0.1l-0.1-0.1l-0.1-0.1L201,403l-0.1-0.1l-0.1-0.1l-0.1-0.1l-0.1-0.1l-0.1-0.1l-0.1-0.1
		l-0.1-0.1l-0.1-0.1l-0.1-0.1l-0.1-0.1l-0.1-0.1l-0.1-0.1l-0.1-0.1l-0.1-0.1l-0.1-0.1l-0.1-0.1l-0.1-0.1l-0.1-0.1l-0.1-0.1l-0.1-0.1
		l-0.1-0.1l-0.1-0.1l-0.1-0.1l-0.1-0.1l-0.1-0.1l-0.1-0.1l0-0.1l0-0.1l0-0.1l0-0.1l0-0.1l0-0.1l0-0.1l0-0.1l0-0.1l0-0.1l0-0.1l0-0.1
		l0-0.1l0-0.1l0-0.1l0-0.1l0-0.1l0-0.1l0-0.1l0-0.1l0-0.1l0-0.1l0-0.1l0-0.1l0-0.1l0-0.1l0-0.1l0-0.1l0-0.1l0-0.1l0-0.1l0-0.1l0-0.1
		l0-0.1l0-0.1l0-0.1l0-0.1l0-0.1l0-0.1l0-0.1l0-0.1l0-0.1l0-0.1l0-0.1l0-0.1l0-0.1l0-0.1l0-0.1l0-0.1l0-0.1l0-0.1l0-0.1l0-0.1l0-0.1
		l0-0.1l0-0.1l0-0.1l0-0.1l0-0.1l0-0.1l0-0.1l0-0.1l0-0.1l0-0.1l0-0.1l0-0.1l0-0.1l0-0.1l0-0.1l0-0.1l0-0.1l0-0.1l0-0.1v-0.1l0-0.1
		V271.7v-2l0-0.1v-0.1l0-0.1l0-0.1l0-0.1l0-0.1l0-0.1l0-0.1l0-0.1l0-0.1l0-0.1l0-0.1l0-0.1l0-0.1l0-0.1l0-0.1l0-0.1l0-0.1l0-0.1
		l0-0.1l0-0.1l0-0.1l0-0.1l0-0.1l0-0.1l0-0.1l0-0.1l0-0.1l0-0.1l0-0.1l0-0.1l0-0.1l0-0.1l0-0.1l0-0.1l0-0.1l0-0.1l0-0.1l0-0.1l0-0.1
		l0-0.1l0-0.1l0-0.1l0-0.1l0-0.1l0-0.1l0-0.1l0-0.1l0-0.1l0-0.1l0-0.1l0-0.1l0-0.1l0-0.1l0-0.1l0-0.1l0-0.1l0-0.1l0-0.1l0-0.1l0-0.1
		l0-0.1l0-0.1l0-0.1l0-0.1l0-0.1l0-0.1l0-0.1l0-0.1l0-0.1l0-0.1l0-0.1l0-0.1l0-0.1l0-0.1l0-0.1l0-0.1l0-0.1l0-0.1l0-0.1l0-0.1l0-0.1
		l0-0.1l0-0.1l0-0.1l0.1-0.1l0.1-0.1l0.1-0.1l0.1-0.1l0.1-0.1l0.1-0.1l0.1-0.1l0.1-0.1l0.1-0.1l0.1-0.1l0.1-0.1l0.1-0.1l0.1-0.1
		l0.1-0.1l0.1-0.1l0.1-0.1l0.1-0.1l0.1-0.1l0.1-0.1l0.1-0.1l0.1-0.1l0.1-0.1l0.1-0.1l0.1-0.1l0.1-0.1l0.1-0.1l0.1-0.1l0.1-0.1
		l0.1-0.1l0.1-0.1l0.1-0.1l0.1-0.1l0.1-0.1l0.1-0.1l0.1-0.1l0.1-0.1l0.1-0.1l0.1-0.1l0.1-0.1l0.1-0.1l0.1-0.1l0.1-0.1l0.1-0.1
		l0.1-0.1l0.1-0.1l0.1-0.1l0.1-0.1l0.1-0.1l0.1-0.1l0.1-0.1l0.1-0.1l0.1-0.1l0.1-0.1l0.1-0.1l0.1-0.1l0.1-0.1l0.1-0.1l0.1-0.1
		l0.1-0.1l0.1-0.1l0.1-0.1l0.1-0.1l0.1-0.1l0.1-0.1l0.1-0.1l0.1-0.1l0.1-0.1l0.1-0.1l0.1-0.1l0.1-0.1l0.1-0.1l0.1-0.1l0.1-0.1
		l0.1-0.1l0.1-0.1l0.1-0.1l0.1-0.1l0.1-0.1l0.1-0.1l0.1-0.1l0.1-0.1l0.1-0.1l0.1-0.1l0.1-0.1l0.1-0.1l0.1-0.1l0.1,0l0.1,0l0.1,0
		l0.1,0l0.1,0l0.1,0l0.1,0l0.1,0l0.1,0l0.1,0l0.1,0l0.1,0l0.1,0l0.1,0l0.1,0l0.1,0l0.1,0l0.1,0l0.1,0l0.1,0l0.1,0l0.1,0l0.1,0l0.1,0
		l0.1,0l0.1,0l0.1,0l0.1,0l0.1,0l0.1,0l0.1,0l0.1,0l0.1,0l0.1,0l0.1,0l0.1,0l0.1,0l0.1,0l0.1,0l0.1,0l0.1,0l0.1,0l0.1,0l0.1,0l0.1,0
		l0.1,0l0.1,0l0.1,0l0.1,0l0.1,0l0.1,0l0.1,0l0.1,0l0.1,0l0.1,0l0.1,0l0.1,0l0.1,0l0.1,0l0.1,0l0.1,0l0.1,0l0.1,0l0.1,0l0.1,0l0.1,0
		l0.1,0l0.1,0l0.1,0l0.1,0l0.1,0l0.1,0l0.1,0l0.1,0l0.1,0l0.1,0l0.1,0l0.1,0l0.1,0l0.1,0l0.1,0l0.1,0l0.1,0l0.1,0h0.1L255.6,253.2
		L255.6,253.2z M233.2,288.9V323l1.2-0.1h20.8l0.1,0h0.1h0.1l0.1,0h0.1l0.1,0l0.1,0l0.1,0l0.1,0l0.1,0l0.1,0l0.1,0l0.1,0l0.1,0
		l0.1,0l0.1,0l0.1,0l0.1,0l0.1,0l0.1,0l0.1,0l0.1,0l0.1,0l0.1,0l0.1,0l0.1,0l0.1,0l0.1,0l0.1,0l0.1,0l0.1,0l0.1,0l0.1,0l0.1,0l0.1,0
		l0.1,0l0.1,0l0.1,0l0.1,0l0.1,0l0.1,0l0.1,0l0.1,0l0.1,0l0.1,0l0.1,0l0,0l0.1,0l0.1,0l0.1,0l0,0l0.1,0l0.1,0l0.1,0l0.1,0l0.1,0
		l0.1,0l0.1,0l0.1,0l0.1,0l0.1,0l0.1,0l0.1,0l0.1,0l0.1,0l0.1,0l0.1,0l0,0l0.1,0l0.1,0l0,0l0.1,0l0.1,0l0,0l0.1,0l0.1,0l0.1,0l0.1,0
		l0.1,0l0,0l0,0l0.1,0l0,0l0.1,0l0.1,0l0,0l0.1,0l0.1,0l0,0l0.1,0l0,0l0.1,0l0.1,0l0,0l0.1,0l0.1,0l0,0l0.1,0l0.1,0l0,0l0.1,0l0,0
		l0,0l0,0l0,0l0.1,0l0,0l0,0l0,0l0,0l0,0l0,0l0.1,0l0,0l0,0l0.1,0l0.1,0l0,0l0,0l0,0l0.1,0l0.1,0l0,0l0,0l0.1,0l0,0l0,0l0.1,0l0,0
		l0,0l0,0l0,0l0,0l0,0l0,0l0,0l0,0l0,0l0,0l0.1,0l0,0l0,0l0,0l0,0l0.1,0l0,0l0,0l0,0l0,0l0,0l0,0l0,0l0,0l0,0l0,0l0,0l0,0l0,0l0,0
		l0,0l0,0l0,0l0,0l0,0l0,0l0,0l0,0l0,0l0,0l0,0l0,0l0,0l0.1,0l0,0l0,0l0,0l0,0l0,0l0,0l0.1,0l0,0l0,0l0,0l0,0l0,0l0,0l0,0l0,0l0,0
		l0,0l0,0l0,0l0,0l0,0l0,0l0,0l0,0l0,0l0,0l0,0l0,0l0,0l0,0l0,0l0,0l0,0l0,0l0,0l0,0l0,0l0,0l0,0l0,0l0,0l0,0l0,0l0,0l0,0l0,0l0,0
		l0,0l0,0l0,0l0,0l0,0l0,0l0,0l0,0l0,0l0,0l0,0l0,0l0,0l0,0l0,0l0,0l0,0l0,0l0,0l0,0l0,0l0,0l0,0l0,0l0,0l0,0l0,0l0,0l0,0l0,0l0,0
		l0,0l0,0l0,0l0,0l0,0l0,0l0,0l0,0l0,0l0,0l0,0l0,0l0,0l0,0l0,0l0,0l0,0l0,0l0,0l0,0l0,0l0,0l0,0l0,0l0,0l0,0l0,0l0,0l0,0l0,0l0,0
		l0,0l0,0l0,0l0,0l0,0l0,0l0,0l0,0l0,0l0,0l0,0l0,0l0,0l0,0l0,0l0,0l0,0l0,0l0,0l0,0l0,0l0,0l0,0l0,0l0,0l0,0l0,0l0,0l0,0l0,0l0,0
		l0,0l0,0l0,0l0,0l0,0l0,0l0,0l0,0l0,0l0,0l0,0l0,0l0,0l0,0l0,0l0,0l0,0l0,0l0,0l0,0l0,0l0,0l0,0l0,0l0,0l0,0l0,0l0,0l0-0.1l0,0l0,0
		l0,0l0,0l0,0l0,0l0-0.1l0,0l0,0l0-0.1l0,0l0,0l0,0l0,0l0,0l0,0l0,0l0,0l0,0l0,0l0,0l0,0l0-0.1l0,0l0,0l0-0.1l0,0l0,0l0-0.1l0,0
		l0-0.1l0,0l0,0l0-0.1l0,0l0,0l0-0.1l0-0.1l0,0l0,0l0-0.1l0,0l0,0l0,0l0-0.1l0,0l0,0l0-0.1l0,0l0,0l0,0l0,0l0,0l0-0.1l0,0l0,0l0-0.1
		l0-0.1l0,0l0-0.1l0-0.1l0,0l0-0.1l0-0.1l0,0l0-0.1l0-0.1l0,0l0,0l0-0.1l0-0.1l0,0l0,0l0-0.1l0-0.1l0,0l0,0l0,0l0-0.1l0-0.1l0,0l0,0
		l0,0l0,0l0,0l0-0.1l0,0l0,0l0-0.1l0,0l0,0l0,0l0-0.1l0-0.1l0-0.1l0-0.1l0-0.1l0-0.1l0,0l0-0.1l0-0.1l0-0.1l0,0l0-0.1l0-0.1l0,0
		l0-0.1l0-0.1l0,0l0,0l0-0.1l0-0.1l0-0.1l0-0.1l0,0l0-0.1l0,0l0,0l0-0.1l0-0.1l0-0.1l0,0l0,0l0-0.1l0-0.1l0-0.1l0-0.1l0-0.1l0-0.1
		l0-0.1l0-0.1l0-0.1l0,0l0-0.1l0-0.1l0,0l0-0.1l0-0.1l0-0.1l0-0.1l0-0.1l0-0.1l0-0.1l0-0.1l0-0.1l0-0.1l0-0.1l0,0l0-0.1l0-0.1l0-0.1
		l0-0.1l0,0l0-0.1l0,0l0-0.1l0-0.1l0-0.1l0-0.1l0-0.1l0-0.1l0-0.1l0-0.1l0-0.1V306l0-0.1v-0.1l0-0.1v-0.1v-0.1v-0.1v-0.1l0-0.1v-0.1
		l0-0.1v-0.1l0-0.1l0,0l0-0.1l0-0.1l0,0l0,0l0-0.1l0-0.1l0,0l0-0.1l0-0.1l0-0.1l0-0.1l0-0.1l0-0.1l0-0.1l0,0l0-0.1l0-0.1l0-0.1
		l0-0.1l0-0.1l0-0.1l0-0.1l0-0.1l0-0.1l0,0l0-0.1l0-0.1l0-0.1l0-0.1l0-0.1l0-0.1l0,0l0-0.1l0,0l0,0l0-0.1l0-0.1l0,0l0-0.1l0-0.1l0,0
		l0,0l0-0.1l0-0.1l0,0l0-0.1l0-0.1l0,0l0-0.1l0-0.1l0,0l0-0.1l0-0.1l0,0l0-0.1l0-0.1l0-0.1l0,0l0-0.1l0-0.1l0-0.1l0,0l0,0l0,0l0-0.1
		l0-0.1l0,0l0,0l0,0l0,0l0-0.1l0,0l0,0l0,0l0,0l0-0.1l0,0l0,0l0-0.1l0,0l0,0l0-0.1l0,0l0-0.1l0-0.1l0,0l0-0.1l0-0.1l0,0l0-0.1l0,0
		l0-0.1l0-0.1l0,0l0-0.1l0,0l0-0.1l0-0.1l0,0l0-0.1l0,0l0,0l0,0l0,0l0,0l0,0l0-0.1l0,0l0,0l0-0.1l0,0l0,0l0,0l0,0l0,0l0,0l0-0.1l0,0
		l0,0l0,0l0,0l0,0l0,0l0-0.1l0,0l0,0l0-0.1l0,0l0,0l0-0.1l0,0l0,0l0-0.1l0,0l0,0l0,0l0,0l0,0l0,0l0,0l0,0l0,0l0,0l0,0l0,0l0,0l0,0
		l0,0l0,0l0,0l0,0l0,0l0,0l0,0l0,0l0,0l0,0l0,0l0,0l0,0l0,0l0,0l0,0l0,0l0,0l0,0l0,0l0,0l0,0l0,0l0,0l0,0l0,0l0,0l0,0l0,0l0,0l0,0
		l0,0l0,0l0,0l0,0l0,0l0,0l0,0l0,0l0,0l0,0l0,0l0,0l0,0l0,0l0,0l0,0l0,0l0,0l0,0l0,0l0,0l0,0l0,0l0,0l0,0l0,0l0,0l0,0l0,0l0,0l0,0
		l0,0l0,0l0,0l0,0l0,0l0,0l0,0l0,0l0,0l0,0l0,0l0,0l0,0l0,0l0,0l0,0l0,0l0,0l0,0l0,0l0,0l0,0l0,0l0,0l0,0l0,0l0,0l0,0l0,0l0,0l0,0
		l0,0l0,0l0,0l0,0l0,0l0,0l0,0l0,0l0,0l0,0l0,0l0,0l0,0l0,0l0,0l0,0l0,0l0,0l0,0l0,0l0,0l0,0l0,0l0,0l0,0l0,0l0,0l0,0l0,0l0,0l0,0
		l0,0l0,0l0,0l0,0l0,0l0,0l0,0l0,0l0,0l0,0l0,0l0,0l0,0l0,0l0,0l0,0l0,0l0,0l0,0l0,0l0,0l0,0l0,0l0,0l0,0l0,0l0,0l0,0l0,0l0,0l0,0
		l0,0l0,0l0,0l0,0l0,0l0,0l0,0l0,0l0,0l0,0l0,0l0,0l0,0l0,0l0,0l0,0l0,0l0,0l0,0l0,0l0,0l0,0l0,0l0,0l0,0l0,0l0,0l0,0l0,0l0,0l0,0
		l0,0l0,0l0,0l0,0l0,0l0,0l0,0l0,0l0,0l0,0l0,0l0,0l0,0l0,0l0,0l-0.1,0l0,0l0,0l-0.1,0l0,0l0,0l0,0l0,0l0,0l0,0l0,0l0,0l0,0l0,0l0,0
		l0,0l0,0l0,0l0,0l0,0l0,0l0,0l0,0l0,0l0,0l0,0l0,0l0,0l0,0l0,0l0,0l0,0l0,0l0,0l0,0l0,0l-0.1,0l0,0l0,0l0,0l0,0l-0.1,0l0,0l0,0
		l-0.1,0l0,0l0,0l-0.1,0l0,0l0,0l0,0l0,0l0,0l-0.1,0l0,0l0,0l-0.1,0l-0.1,0l0,0l-0.1,0l-0.1,0l0,0l0,0l0,0l0,0l0,0l0,0l0,0l0,0l0,0
		l-0.1,0l-0.1,0l0,0l0,0l-0.1,0l0,0l0,0l0,0l-0.1,0l-0.1,0l0,0l0,0l-0.1,0l-0.1,0l-0.1,0l0,0l0,0l0,0l-0.1,0l-0.1,0l-0.1,0l-0.1,0
		l0,0l-0.1,0l-0.1,0l-0.1,0l-0.1,0l-0.1,0l0,0l0,0l-0.1,0l-0.1,0l-0.1,0l0,0l-0.1,0l-0.1,0l-0.1,0l-0.1,0l-0.1,0l-0.1,0l-0.1,0
		l-0.1,0l-0.1,0l-0.1,0l-0.1,0l-0.1,0l-0.1,0l-0.1,0l-0.1,0l-0.1,0l-0.1,0l-0.1,0l-0.1,0l-0.1,0l-0.1,0l-0.1,0l-0.1,0l-0.1,0l-0.1,0
		l-0.1,0l-0.1,0l-0.1,0l-0.1,0l-0.1,0l-0.1,0l-0.1,0l-0.1,0l-0.1,0l-0.1,0l-0.1,0l-0.1,0l-0.1,0l-0.1,0l-0.1,0l-0.1,0l-0.1,0l-0.1,0
		l-0.1,0l-0.1,0l-0.1,0h-0.1l-0.1,0h-0.1l-0.1,0h-0.1h-0.1L233.2,288.9L233.2,288.9z"/>
	<path class="st3" d="M340.6,393.8l-1.3-123.6h18.4L409,393.8l52.5-123.6h18.3l-0.8,123.6"/>
	<path class="st2" d="M372.4,606c-48.1-0.2-144.6-0.6-162.7-0.7l-2.3,0c-1.2-0.1-2.5-0.1-3.7-0.2c-2.5-0.2-4.9-0.6-7.3-1.2
		c-2.4-0.6-4.7-1.4-7-2.4c-3.4-1.5-6.6-3.4-9.6-5.7c-2-1.5-3.8-3.2-5.5-5c-2.5-2.7-4.7-5.7-6.5-9c-1.8-3.2-3.2-6.7-4.2-10.3
		c-0.3-1.2-0.5-2.4-0.8-3.6l-45.5-248.6c-0.2-1.1-0.4-2.3-0.5-3.4c-0.2-2.3-0.3-4.6-0.2-6.8c0.2-3.4,0.7-6.8,1.6-10.1
		c0.3-1.1,0.7-2.2,1-3.3c2.6-7.3,5.2-14.6,7.8-21.8c8.8-24.5,17.5-49,26.3-73.4c2.9-8.2,5.8-16.3,8.7-24.5c1.2-3.3,2.4-6.7,3.5-10
		c0.8-2.2,2.4-7,2.4-7l0.9-2.6l1.1-2.6l0,0c1.5-3,1.5-3,3.2-5.9l0,0c1.6-2.3,1.6-2.3,3.2-4.5l0,0c2.5-2.8,2.5-2.8,5.2-5.3l0,0
		c0.9-0.8,1.8-1.6,2.8-2.3c1.9-1.4,4-2.7,6.1-3.8c2.9-1.5,3.7-1.7,6.7-2.8l0,0c3.1-0.9,3.9-1.2,7.1-1.8c2.4-0.4,4.9-0.6,7.3-0.6
		c1.2,0,2.4,0.1,3.7,0.1c0.7,0,1.4,0.2,2.1,0.3c0.3,0,0.6,0,0.9,0c2.4,0.1,4.9,0.1,7.3,0.2c3.1,0.1,83.8,0.6,96.4,0.7l0.6,0V123
		l0.2-3.7c0.2-1.2,0.3-2.5,0.5-3.7c0.6-3.7,1.7-7.3,3.1-10.7c1-2.3,2.2-4.5,3.5-6.6c2-3.1,4.4-6,7.1-8.6c1.8-1.7,3.8-3.3,5.8-4.6
		c3.1-2.1,6.4-3.8,10-5c3.5-1.3,7.2-2.1,10.9-2.5c1.2-0.1,2.5-0.1,3.7-0.2l72.8-0.3c1.3,0,2.5,0.1,3.8,0.1c1.3,0.1,2.5,0.2,3.8,0.4
		c3.8,0.6,7.5,1.6,11,3.1c2.3,1,4.6,2.2,6.7,3.5c3.2,2,6.2,4.5,8.8,7.3c2.6,2.8,4.9,5.9,6.7,9.2c1.2,2.2,2.3,4.6,3.1,7
		c1.3,3.6,2.1,7.4,2.4,11.2c0.3,3.2,0.2,8.2,0.2,10.7l2.6,0.3c1.2,0.3,2.5,0.5,3.7,0.8c2.5,0.7,4.9,1.5,7.2,2.6
		c3.5,1.6,6.8,3.6,9.7,6c2,1.6,3.8,3.4,5.5,5.3c1.7,1.9,3.2,4,4.6,6.1c1.8,2.9,2.1,3.7,3.5,6.8l54.8,133.8c0.4,1.1,0.8,2.1,1.2,3.2
		c0.7,2.2,1.2,4.4,1.6,6.6c0.6,3.4,0.7,6.8,0.5,10.2c-0.2,3-0.4,3.8-0.9,6.7l-53.3,253.1c-0.3,1.2-0.6,2.4-0.9,3.6
		c-0.7,2.4-1.6,4.7-2.7,7c-1.1,2.2-2.4,4.4-3.8,6.4c-2.2,3-4.7,5.8-7.5,8.3c-2.8,2.4-6,4.5-9.3,6.2c-2,1-44.8,1.9-47,2.6
		c0,0,15.5-9.6,20-20c5.9-13.8,9.1-35,9.1-35L536,308.6l-54.8-133.8l-40.2-0.3l0.1-51.2l-72.9-0.2v50.8c-2.3,0-156.6-0.8-156.7-0.7
		c-0.1,0.4-43,120.1-48.8,136.4l-0.6,1.6l45.5,248.6c4.5,0,9,0.1,13.5,0.1c20.1,0.1,108.2,0.5,152.7,0.7l-26.5-27.2l-1.7-2
		c-0.5-0.7-1-1.4-1.5-2.2c-1.3-2.3-2.3-4.8-2.7-7.4c-0.3-1.7-0.4-3.5-0.3-5.3c0.2-2.6,0.9-5.3,2-7.7c1.1-2.4,2.7-4.6,4.6-6.5
		c1.3-1.2,2.7-2.3,4.2-3.2c2.3-1.3,4.8-2.3,7.4-2.7c0.9-0.1,1.8-0.2,2.6-0.3c0.9,0,1.8,0,2.7,0c2.3,0.3,2.9,0.3,5.2,1
		c2.5,0.8,4.9,2.1,7,3.8c0.7,0.6,1.3,1.2,2,1.8l63.3,64.8c0.6,0.7,1.2,1.3,1.7,2c1.1,1.4,2,2.9,2.7,4.5c0.7,1.6,1.2,3.3,1.5,5
		c0.3,1.7,0.4,3.5,0.3,5.2c-0.2,2.6-0.8,5.2-1.9,7.6c-0.7,1.6-1.6,3.1-2.7,4.5c-0.5,0.7-1.2,1.3-1.7,2l-63.3,64
		c-1.8,1.6-2.1,2.1-4.2,3.3c-1.5,0.9-3.1,1.7-4.8,2.2c-2.5,0.8-5.2,1.1-7.9,1c-1.8-0.1-3.5-0.4-5.2-0.9c-1.7-0.5-3.3-1.2-4.8-2.1
		c-1.5-0.9-2.9-2-4.2-3.2c-1.9-1.9-3.4-4.1-4.5-6.5c-1.1-2.4-1.8-5-1.9-7.7c-0.2-2.7,0.1-5.3,0.9-7.9c0.8-2.5,2-4.9,3.6-7
		c0.5-0.7,1.2-1.3,1.7-2L372.4,606L372.4,606z"/>
</g>
<g>
	<path class="st4" d="M1048.8,205.1h-63.1v-2.2l32.7-52.3c3.6-6.1,7.2-11.7,10.8-17.1c-39.9,0-40.1-0.2-40.1-0.2v-9.7h56.5v2.2
		l-32.7,52.3c-3.5,6.1-7.1,11.7-10.6,17.1c46.4,0,46.6,0.2,46.6,0.2V205.1z M725.1,196.8l-10.1,8.3l-0.4-6.8
		c-2.8,2.9-6.4,5-10.8,6.5c-4.3,1.4-9.1,2.2-14.4,2.2c-6.9,0-13.5-1.7-19.7-5.1c-6.2-3.4-11.3-8.2-15.2-14.5
		c-3.9-6.3-6-13.9-6.1-22.8c0.1-8.3,2-15.7,5.7-22.1c3.7-6.4,8.8-11.4,15.2-15c6.4-3.6,13.7-5.5,21.9-5.5c4.6,0,8.9,0.6,12.8,1.7
		c3.9,1.1,7,2.6,9.5,4.4V77.1h11.5V196.8z M713.6,188.9V140c-2.5-2.5-5.7-4.4-9.6-5.9c-3.9-1.5-8.1-2.2-12.7-2.2
		c-9,0.2-16.4,3.2-22.3,9.1c-5.8,5.9-8.8,13.7-9,23.4c0.2,9.7,3.2,17.5,9,23.3c5.8,5.9,13.2,8.9,22.3,9c4.5,0,8.7-0.7,12.6-2.1
		C707.7,193.3,710.9,191.4,713.6,188.9z M805.7,152.2c0,1.1,0,2.1-0.2,3.1l-8.8,9.2H744c-0.3,5.6,0.9,10.8,3.5,15.7
		c2.6,4.9,6.4,8.9,11.4,11.9c5,3.1,10.8,4.7,17.5,4.8c4.8,0,9.3-0.6,13.4-1.9c4.1-1.3,8.2-3.3,12.1-6.2l-3.2,12.6
		c-3.1,1.8-6.6,3.2-10.4,4.1c-3.8,1-8.2,1.4-13.2,1.4c-7.9-0.1-15.1-1.9-21.5-5.4c-6.5-3.6-11.6-8.5-15.5-14.9
		c-3.9-6.3-5.9-13.7-5.9-22.1c0.1-8.8,2.1-16.4,5.9-22.7c3.8-6.3,8.7-11.2,14.6-14.7c6-3.4,12.2-5.2,18.8-5.2
		c7.4,0.1,13.7,1.6,18.8,4.6c5.1,2.9,8.9,6.7,11.5,11.3C804.4,142.3,805.7,147.1,805.7,152.2z M794.4,152.8c0-3.3-0.8-6.5-2.5-9.7
		c-1.7-3.2-4.1-5.9-7.5-8c-3.3-2.1-7.4-3.2-12.3-3.3c-6.8,0.2-12.7,2.6-17.8,7.2c-5,4.6-8.2,10-9.4,16.1h49.3
		C794.3,154.4,794.4,153.6,794.4,152.8z M868.9,205.1h-63.1v-2.2l32.7-52.3c3.6-6.1,7.2-11.7,10.8-17.1c-39.9,0-40.1-0.2-40.1-0.2
		v-9.7h56.5v2.2L833,178.1c-3.5,6.1-7.1,11.7-10.6,17.1c46.4,0,46.6,0.2,46.6,0.2V205.1z M917,132.3h-1.8c-8,0-14.7,2.7-20.2,8.2
		c-5.5,5.5-8.4,13.7-8.6,24.7v39.9h-11.3v-72.4l10.8-9l0.5,15.6c1.8-5,5.1-9,10-12.1c4.9-3,11-4.6,18.2-4.7L917,132.3z M985.6,152.2
		c0,1.1,0,2.1-0.2,3.1l-8.8,9.2h-52.7c-0.3,5.6,0.8,10.8,3.5,15.7c2.6,4.9,6.4,8.9,11.4,11.9c5,3.1,10.8,4.7,17.5,4.8
		c4.8,0,9.3-0.6,13.4-1.9c4.1-1.3,8.2-3.3,12.1-6.2l-3.2,12.6c-3.1,1.8-6.6,3.2-10.4,4.1c-3.8,1-8.2,1.4-13.2,1.4
		c-7.9-0.1-15.1-1.9-21.5-5.4c-6.5-3.6-11.6-8.5-15.5-14.9c-3.9-6.3-5.9-13.7-5.9-22.1c0.1-8.8,2.1-16.4,5.9-22.7
		c3.8-6.3,8.7-11.2,14.6-14.7c6-3.4,12.2-5.2,18.8-5.2c7.4,0.1,13.7,1.6,18.8,4.6c5.1,2.9,8.9,6.7,11.5,11.3
		C984.3,142.3,985.6,147.1,985.6,152.2z M974.2,152.8c0-3.3-0.8-6.5-2.5-9.7c-1.7-3.2-4.1-5.9-7.5-8c-3.3-2.1-7.4-3.2-12.3-3.3
		c-6.8,0.2-12.7,2.6-17.8,7.2c-5,4.6-8.2,10-9.4,16.1h49.3C974.2,154.4,974.3,153.6,974.2,152.8z"/>
</g>
<g>
	<path class="st5" d="M804.3,610.9V533c-0.2-10.3-3.8-18.4-10.8-24.5c-7-6-16-9.1-27.1-9.3c-10,0.1-18.2,1.8-24.5,5
		c-6.3,3.2-10.8,7.3-13.4,12.1c-2.9-5.1-7.1-9.3-12.8-12.3c-5.7-3.1-12.2-4.7-19.5-4.8c-9.1,0.1-16.2,1.5-21.5,4.2
		c-5.3,2.7-9.3,6.1-12.1,10.2l-0.5-12h-13.7v109.3h15.2v-76.7c0.1-6.7,2.7-12,7.8-15.8c5-3.8,11.8-5.8,20.3-5.9
		c8.5,0,15.2,1.9,20,5.7c4.8,3.8,7.2,9.1,7.3,16v76.7h15.2v-76.7c0.1-6.7,2.7-12,7.8-15.8c5-3.8,11.8-5.8,20.2-5.9
		c8.5,0,15.1,1.9,19.9,5.7c4.7,3.8,7.1,9.1,7.2,16v76.7H804.3z"/>
	<path class="st5" d="M908.5,603.5c-3.6-0.6-6.8-2.4-9.4-5.3c-2.6-2.9-4-7.1-4.1-12.5v-50c-0.2-11.8-4-20.8-11.5-27
		c-7.4-6.2-17.1-9.4-29-9.4c-6.2,0-12.2,0.7-17.9,2.2c-5.7,1.4-10.7,3.6-14.9,6.5l3.1,12.8c3.7-2.5,8.2-4.4,13.3-5.9
		c5.1-1.5,10.4-2.3,15.7-2.3c8.3,0.1,14.6,2,19.1,5.9c4.5,3.8,6.7,9.1,6.8,15.8v10.4l-30.4,2.9c-8.7,0.9-16.4,4.2-23.1,9.9
		c-6.7,5.7-10.3,13.5-10.6,23.4c0.2,9.3,3.4,17,9.8,23.1c6.4,6.1,14.7,9.3,25.2,9.5c6.9-0.1,13.2-1.6,18.8-4.5c5.7-3,10-7,13-12.1
		c0.8,4.3,2.8,7.9,5.9,10.9c3.1,3,6.6,4.9,10.5,5.7L908.5,603.5z M879.6,572.1c-0.4,8.7-3.5,15.5-9.5,20.5c-5.9,5-12.3,7.6-19.3,7.7
		c-5.9-0.1-10.8-1.9-14.7-5.5c-3.9-3.5-5.9-8.1-6-13.6c0.1-6,2.1-10.9,6-14.6c3.9-3.8,9.1-6,15.8-6.6l27.8-2.7V572.1z"/>
	<path class="st5" d="M1007.8,610.9v-73.6c-0.2-12-4.2-21.4-11.9-28c-7.7-6.6-17.6-10-29.8-10.1c-9.6,0.1-17.2,1.7-22.9,4.7
		c-5.7,3-10,6.6-12.8,11l-0.5-13.2h-13.7v109.3h15.2v-72.1c0.1-7.7,3-14,8.5-18.9c5.6-4.8,13.1-7.3,22.6-7.5
		c9.8,0.1,17.3,2.6,22.4,7.5c5.1,4.8,7.7,11.1,7.8,18.9v72.1H1007.8z"/>
	<path class="st5" d="M1112.2,603.5c-3.6-0.6-6.7-2.4-9.4-5.3c-2.6-2.9-4-7.1-4.1-12.5v-50c-0.2-11.8-4-20.8-11.5-27
		c-7.4-6.2-17.1-9.4-29-9.4c-6.2,0-12.2,0.7-17.9,2.2c-5.7,1.4-10.7,3.6-14.9,6.5l3.1,12.8c3.7-2.5,8.2-4.4,13.3-5.9
		c5.1-1.5,10.4-2.3,15.7-2.3c8.3,0.1,14.6,2,19.1,5.9c4.5,3.8,6.7,9.1,6.8,15.8v10.4l-30.4,2.9c-8.7,0.9-16.4,4.2-23.1,9.9
		c-6.7,5.7-10.3,13.5-10.6,23.4c0.2,9.3,3.4,17,9.8,23.1c6.4,6.1,14.7,9.3,25.2,9.5c6.9-0.1,13.2-1.6,18.8-4.5c5.7-3,10-7,13-12.1
		c0.8,4.3,2.8,7.9,5.9,10.9c3.1,3,6.6,4.9,10.5,5.7L1112.2,603.5z M1083.3,572.1c-0.4,8.7-3.5,15.5-9.5,20.5
		c-5.9,5-12.3,7.6-19.3,7.7c-5.9-0.1-10.8-1.9-14.7-5.5c-3.9-3.5-5.9-8.1-6-13.6c0.1-6,2.1-10.9,6-14.6c3.9-3.8,9.1-6,15.8-6.6
		l27.8-2.7V572.1z"/>
	<path class="st5" d="M1203.8,629.3c-0.1-7.6-2.3-14.1-6.6-19.4c-4.3-5.3-10.3-9.2-18-11.8l-29-9.9c-2.6-1.1-4.9-2.6-6.7-4.3
		c-1.9-1.8-2.8-3-2.9-3.6c0-2.3,1.3-4.3,4.1-6c2.8-1.7,7-2.6,12.8-2.7c11.4-0.3,20.4-3.9,27.1-10.8c6.7-6.9,10.1-15.4,10.3-25.4
		c0-4.4-0.7-8.3-1.9-11.8c-1.2-3.5-2.8-6.4-4.8-8.7c2.2,0,4.7-0.4,7.4-1.1c2.7-0.7,4.8-1.4,6.3-2.3l-3.1-12.5
		c-2,1.1-4.5,2.1-7.5,2.9c-3.1,0.8-6.4,1.2-10.1,1.2c-4.2-0.2-7.7-0.8-10.7-1.9c-3-1.1-7.3-1.8-12.9-1.9
		c-11.3,0.2-20.4,3.6-27.3,10.2c-6.9,6.6-10.4,15.3-10.6,26c0.1,7.3,2,13.6,5.5,19c3.5,5.4,7.9,9.4,13.1,12.1
		c-3.5,1.2-6.7,3.4-9.5,6.7c-2.8,3.3-4.3,6.8-4.5,10.7l13,11.8c-6.6,1.8-12.5,5.7-17.4,11.6c-5,5.9-7.6,12.9-7.9,21
		c0.2,11.1,4.5,20.2,12.9,27.3c8.4,7.1,19.5,10.8,33.4,11c13.5-0.3,24.4-4,32.8-11.1C1199.3,648.5,1203.6,639.7,1203.8,629.3z
		 M1180.7,535.4c-0.1,6.8-2.3,12.4-6.6,16.8c-4.3,4.4-9.8,6.7-16.6,6.8c-6.9-0.2-12.5-2.4-16.9-6.8c-4.4-4.4-6.6-10-6.7-16.8
		c0.1-6.6,2.4-12.1,6.7-16.5c4.4-4.4,10-6.7,16.9-6.9c6.8,0.2,12.3,2.5,16.6,6.9C1178.3,523.3,1180.5,528.9,1180.7,535.4z
		 M1188.9,629.8c-0.1,5.9-2.9,11.3-8.5,16.4c-5.6,5-13.3,7.7-23.1,8c-10-0.4-17.7-3.1-23.2-8.4c-5.5-5.2-8.3-10.8-8.4-16.7
		c0.2-6.8,2.7-12.7,7.5-17.6c4.8-5,10.6-7.6,17.6-7.7l24.9,8.2c4.1,1.4,7.4,3.6,9.7,6.7C1187.6,621.7,1188.8,625.4,1188.9,629.8z"/>
	<path class="st5" d="M1302.6,540c0-6.8-1.8-13.3-5.2-19.5c-3.5-6.2-8.6-11.2-15.4-15.2c-6.8-3.9-15.2-6-25.2-6.1
		c-8.9,0.1-17.3,2.4-25.3,7c-8,4.6-14.5,11.2-19.6,19.7c-5.1,8.5-7.7,18.7-7.9,30.5c0.1,11.3,2.8,21.2,8,29.7
		c5.2,8.5,12.1,15.2,20.8,20c8.7,4.8,18.3,7.2,28.9,7.3c6.7,0,12.6-0.7,17.7-1.9c5.1-1.3,9.7-3.1,13.9-5.5l4.3-16.9
		c-5.2,3.8-10.6,6.6-16.2,8.3c-5.6,1.7-11.6,2.6-18,2.5c-9-0.1-16.8-2.3-23.5-6.4c-6.7-4.1-11.8-9.5-15.3-16
		c-3.5-6.6-5.1-13.6-4.7-21h70.7l11.8-12.3c0.1-0.6,0.2-1.3,0.2-2C1302.5,541.5,1302.6,540.7,1302.6,540z M1287.4,540.7
		c0,0.6,0,1.2,0,1.7c0,0.5-0.1,1-0.2,1.5H1221c1.7-8.3,5.9-15.5,12.6-21.7c6.7-6.2,14.7-9.4,23.8-9.7c9.9,0.4,17.4,3.5,22.4,9.3
		C1284.9,527.7,1287.4,534,1287.4,540.7z"/>
	<path class="st5" d="M1469.6,610.9V533c-0.2-10.3-3.8-18.4-10.8-24.5c-7-6-16-9.1-27.1-9.3c-10,0.1-18.2,1.8-24.5,5
		c-6.3,3.2-10.8,7.3-13.4,12.1c-2.9-5.1-7.1-9.3-12.8-12.3c-5.7-3.1-12.2-4.7-19.5-4.8c-9.1,0.1-16.2,1.5-21.5,4.2
		c-5.3,2.7-9.3,6.1-12.1,10.2l-0.5-12h-13.7v109.3h15.2v-76.7c0.1-6.7,2.7-12,7.8-15.8c5-3.8,11.8-5.8,20.2-5.9
		c8.5,0,15.2,1.9,20,5.7c4.8,3.8,7.2,9.1,7.3,16v76.7h15.2v-76.7c0.1-6.7,2.7-12,7.8-15.8c5-3.8,11.8-5.8,20.3-5.9
		c8.5,0,15.1,1.9,19.9,5.7c4.7,3.8,7.1,9.1,7.2,16v76.7H1469.6z"/>
	<path class="st5" d="M1579.4,540c0-6.8-1.8-13.3-5.2-19.5c-3.5-6.2-8.6-11.2-15.4-15.2c-6.8-3.9-15.2-6-25.2-6.1
		c-8.9,0.1-17.3,2.4-25.3,7c-8,4.6-14.5,11.2-19.6,19.7c-5.1,8.5-7.7,18.7-7.9,30.5c0.1,11.3,2.8,21.2,8,29.7
		c5.2,8.5,12.1,15.2,20.8,20c8.7,4.8,18.3,7.2,28.9,7.3c6.7,0,12.6-0.7,17.7-1.9c5.1-1.3,9.7-3.1,13.9-5.5l4.3-16.9
		c-5.3,3.8-10.7,6.6-16.2,8.3c-5.6,1.7-11.6,2.6-18,2.5c-9-0.1-16.8-2.3-23.5-6.4c-6.7-4.1-11.8-9.5-15.3-16
		c-3.5-6.6-5.1-13.6-4.7-21h70.7l11.8-12.3c0.1-0.6,0.2-1.3,0.2-2C1579.3,541.5,1579.4,540.7,1579.4,540z M1564.2,540.7
		c0,0.6,0,1.2,0,1.7c0,0.5-0.1,1-0.2,1.5h-66.1c1.7-8.3,5.9-15.5,12.6-21.7c6.7-6.2,14.7-9.4,23.8-9.7c9.9,0.4,17.4,3.5,22.4,9.3
		C1561.7,527.7,1564.2,534,1564.2,540.7z"/>
	<path class="st5" d="M1682.2,610.9v-73.6c-0.2-12-4.2-21.4-11.9-28c-7.7-6.6-17.6-10-29.8-10.1c-9.6,0.1-17.2,1.7-22.9,4.7
		c-5.7,3-10,6.6-12.8,11l-0.5-13.2h-13.7v109.3h15.2v-72.1c0.1-7.7,3-14,8.5-18.9c5.6-4.8,13.1-7.3,22.6-7.5
		c9.8,0.1,17.3,2.6,22.4,7.5c5.1,4.8,7.7,11.1,7.8,18.9v72.1H1682.2z"/>
	<path class="st5" d="M1750,501.7h-39.1V470l-15.2,8v105.2c0.2,9.7,3.1,17,8.7,21.9c5.6,5,12.8,7.4,21.4,7.5c2.2,0,4.1-0.1,5.9-0.3
		c1.7-0.2,3.2-0.5,4.3-0.9l3.6-14.2c-1.6,0.7-3.4,1.3-5.5,1.6c-2.1,0.4-4.5,0.5-7,0.5c-4.6,0-8.4-1.3-11.4-3.9
		c-3-2.6-4.6-6.5-4.7-11.8v-69.5h36L1750,501.7z"/>
</g>
<g>
	<path class="st5" d="M751.2,341.8c-0.2-12-2.9-22.3-8.2-30.8c-5.3-8.5-12.1-15-20.5-19.5c-8.3-4.5-17.1-6.8-26.3-6.8
		c-7.2,0-13.7,1-19.5,2.9c-5.8,1.9-10.7,4.8-14.6,8.7l-0.5-9.2h-13.2v165h15.2v-61.5c3.4,2.4,7.8,4.4,13,5.9
		c5.2,1.5,10.9,2.2,17.2,2.3c16.6-0.3,30.3-5.7,40.9-16.1C745.4,372.2,750.9,358.6,751.2,341.8z M735.8,341.8
		c-0.3,12.9-4.4,23.3-12.2,31.2c-7.9,7.9-17.8,12-29.8,12.2c-6.2,0-11.9-1-17.2-3c-5.2-2-9.6-4.6-13-7.9v-65.6
		c3.5-3.3,7.9-5.9,13.1-7.8c5.2-1.9,10.9-2.8,17.1-2.9c12,0.2,21.9,4.3,29.8,12.2C731.5,318.2,735.5,328.7,735.8,341.8z"/>
	<path class="st5" d="M924.2,341.8c-0.4-17-5.9-30.6-16.5-41.1c-10.6-10.4-24.3-15.8-40.9-16.1c-16.7,0.3-30.3,5.7-41,16.1
		c-10.7,10.4-16.2,24.1-16.6,41.1c0.4,16.9,5.9,30.6,16.6,41c10.7,10.4,24.4,15.7,41,16c16.6-0.3,30.3-5.6,40.9-16
		C918.4,372.4,923.9,358.7,924.2,341.8z M908.8,341.8c-0.3,13-4.4,23.4-12.3,31.3c-7.9,7.9-17.8,11.9-29.7,12.1
		c-12.1-0.2-22.1-4.3-30-12.1c-7.9-7.9-12-18.3-12.2-31.3c0.3-13,4.4-23.5,12.2-31.4c7.9-7.9,17.9-12,30-12.2
		c11.9,0.2,21.8,4.3,29.7,12.2C904.4,318.3,908.5,328.8,908.8,341.8z"/>
	<path class="st5" d="M1035.1,341.8c-0.2-12-2.9-22.3-8.2-30.8c-5.3-8.5-12.1-15-20.5-19.5c-8.3-4.5-17.1-6.8-26.3-6.8
		c-7.2,0-13.7,1-19.5,2.9c-5.8,1.9-10.7,4.8-14.6,8.7l-0.5-9.2h-13.2v165h15.2v-61.5c3.4,2.4,7.8,4.4,13,5.9
		c5.2,1.5,10.9,2.2,17.2,2.3c16.7-0.3,30.3-5.7,40.9-16.1C1029.2,372.2,1034.7,358.6,1035.1,341.8z M1019.7,341.8
		c-0.3,12.9-4.4,23.3-12.2,31.2c-7.9,7.9-17.8,12-29.8,12.2c-6.2,0-11.9-1-17.2-3c-5.2-2-9.6-4.6-13-7.9v-65.6
		c3.5-3.3,7.9-5.9,13.1-7.8c5.2-1.9,10.9-2.8,17.1-2.9c12,0.2,21.9,4.3,29.8,12.2C1015.3,318.2,1019.4,328.7,1019.7,341.8z"/>
	<path class="st5" d="M1143.8,325.4c0-6.8-1.8-13.3-5.2-19.5c-3.5-6.2-8.6-11.2-15.4-15.2c-6.8-3.9-15.2-6-25.2-6.1
		c-8.9,0.1-17.3,2.4-25.3,7c-8,4.6-14.5,11.2-19.6,19.7c-5.1,8.5-7.7,18.7-7.9,30.5c0.1,11.3,2.8,21.2,8,29.7
		c5.2,8.5,12.1,15.2,20.8,20c8.7,4.8,18.3,7.2,28.9,7.3c6.7,0,12.6-0.6,17.7-1.9c5.1-1.3,9.7-3.1,13.9-5.5l4.3-16.9
		c-5.3,3.8-10.7,6.6-16.2,8.3c-5.6,1.7-11.6,2.6-18,2.5c-9-0.1-16.8-2.3-23.5-6.4c-6.7-4.1-11.8-9.5-15.3-16
		c-3.5-6.6-5.1-13.6-4.7-21h70.7l11.8-12.3c0.1-0.6,0.2-1.3,0.2-2C1143.8,326.8,1143.8,326.1,1143.8,325.4z M1128.6,326.1
		c0,0.6,0,1.2,0,1.7c0,0.5-0.1,1-0.2,1.5h-66.1c1.7-8.3,5.9-15.5,12.6-21.7c6.7-6.2,14.7-9.4,23.8-9.7c9.9,0.4,17.4,3.5,22.4,9.3
		C1126.1,313,1128.6,319.3,1128.6,326.1z"/>
	<path class="st5" d="M1271.9,287h-39.1v-31.6l-15.2,8v105.2c0.2,9.7,3.1,17,8.7,21.9c5.6,5,12.8,7.4,21.4,7.5
		c2.2,0,4.1-0.1,5.9-0.3c1.7-0.2,3.2-0.5,4.3-0.9l3.6-14.2c-1.6,0.7-3.4,1.3-5.5,1.6c-2.1,0.4-4.5,0.5-7,0.5
		c-4.6,0-8.4-1.3-11.4-3.9c-3-2.6-4.6-6.5-4.7-11.8v-69.5h36L1271.9,287z"/>
	<path class="st5" d="M1376,287h-14.7l-22.4,52.1c-2,4.7-4,9.7-6.1,15c-2.1,5.3-4.1,10.5-5.9,15.4h-0.5c-1.6-4.9-3.5-10-5.6-15.4
		c-2.1-5.3-4.2-10.3-6.2-15L1292,287h-15.9l42.2,99.6c-7,16.6-14.6,29.4-22.6,38.2c-8.1,8.9-17.3,14.9-27.5,18l9.4,9.6
		c10.8-3.7,20.8-10.6,30-21c9.2-10.3,17.8-25.2,26-44.7L1376,287z"/>
	<path class="st6" d="M1209.7,298.1h-2.4c-10.6,0-19.6,3.6-26.9,10.9c-7.3,7.3-11.1,18.3-11.4,33v53.2h-15.1v-96.6l14.4-12l0.7,20.9
		c2.4-6.7,6.8-12.1,13.3-16.1c6.5-4,14.6-6.1,24.3-6.2L1209.7,298.1z"/>
	<path class="st6" d="M817.8,298.1h-2.4c-10.6,0-19.6,3.6-26.9,10.9c-7.3,7.3-11.1,18.3-11.4,33v53.2h-15.1v-96.6l14.4-12l0.7,20.9
		c2.4-6.7,6.8-12.1,13.3-16.1c6.5-4,14.6-6.1,24.3-6.2L817.8,298.1z"/>
</g>
</svg>
