<?xml version="1.0" encoding="UTF-8" standalone="no"?><!DOCTYPE svg PUBLIC "-//W3C//DTD SVG 1.1//EN" "http://www.w3.org/Graphics/SVG/1.1/DTD/svg11.dtd"><svg width="100%" height="100%" viewBox="0 0 456 512" version="1.1" xmlns="http://www.w3.org/2000/svg" xmlns:xlink="http://www.w3.org/1999/xlink" xml:space="preserve" style="fill-rule:evenodd;clip-rule:evenodd;stroke-linejoin:round;stroke-miterlimit:1.41421;"><rect id="Rezi-logo" x="0" y="0" width="455.801" height="511.687" style="fill:none;"/><g id="Rezi-logo1"><path d="M295.425,442.522l-172.385,0c-0.912,-0.038 -1.827,-0.038 -2.737,-0.113c-2.731,-0.225 -5.433,-0.789 -8.026,-1.675c-2.593,-0.886 -5.076,-2.093 -7.374,-3.585c-1.532,-0.996 -2.981,-2.116 -4.33,-3.349c-2.022,-1.849 -3.814,-3.948 -5.324,-6.236c-1.509,-2.287 -2.734,-4.76 -3.639,-7.347c-0.905,-2.587 -1.488,-5.284 -1.733,-8.014c-0.082,-0.909 -0.088,-1.824 -0.133,-2.736l-1.09,-149.825l-10.43,0l-2.754,-0.114c-2.428,-0.303 -3.053,-0.305 -5.431,-0.908c-1.783,-0.452 -3.525,-1.051 -5.208,-1.791c-1.684,-0.739 -3.303,-1.617 -4.842,-2.624c-1.538,-1.007 -2.991,-2.14 -4.342,-3.387c-1.352,-1.247 -2.598,-2.603 -3.725,-4.056c-1.128,-1.453 -2.133,-2.996 -3.006,-4.615c-0.873,-1.618 -1.61,-3.306 -2.204,-5.046c-0.594,-1.741 -1.042,-3.527 -1.341,-5.342c-0.299,-1.814 -0.448,-3.65 -0.443,-5.489c0.004,-1.839 0.16,-3.674 0.467,-5.487c0.307,-1.813 0.764,-3.597 1.366,-5.335c0.602,-1.738 1.347,-3.422 2.227,-5.037c0.88,-1.615 1.892,-3.154 3.026,-4.601c1.513,-1.931 2.007,-2.315 3.743,-4.039l148.32,-135.6c0.699,-0.588 1.374,-1.205 2.096,-1.764c1.446,-1.118 2.981,-2.115 4.591,-2.982c1.609,-0.866 3.287,-1.598 5.017,-2.189c1.729,-0.591 3.505,-1.038 5.308,-1.338c2.405,-0.399 3.025,-0.349 5.455,-0.449c0.912,0.037 1.825,0.075 2.737,0.112c2.414,0.3 3.035,0.301 5.4,0.897c1.772,0.447 3.505,1.039 5.18,1.77c1.675,0.731 3.287,1.598 4.82,2.594c2.045,1.328 2.469,1.783 4.33,3.349l28.397,25.961l55.576,-0.602l2.77,0.086c0.918,0.105 1.841,0.172 2.753,0.315c2.739,0.43 5.422,1.203 7.969,2.296c1.699,0.729 3.335,1.599 4.889,2.599c2.331,1.501 4.473,3.293 6.361,5.323c1.888,2.03 3.52,4.295 4.848,6.729c0.885,1.623 1.634,3.317 2.239,5.064c0.906,2.62 1.483,5.352 1.713,8.115c0.077,0.92 0.077,1.845 0.115,2.768l0,48.888l30.69,28.058l1.955,1.942c1.588,1.862 2.048,2.285 3.397,4.335c1.01,1.536 1.892,3.154 2.635,4.835c0.743,1.682 1.346,3.423 1.802,5.204c0.456,1.782 0.764,3.598 0.92,5.43c0.156,1.832 0.161,3.674 0.013,5.507c-0.148,1.833 -0.448,3.65 -0.896,5.434c-0.448,1.783 -1.043,3.526 -1.779,5.212c-0.736,1.685 -1.61,3.306 -2.613,4.847c-1.004,1.541 -2.133,2.996 -3.377,4.35c-1.244,1.355 -2.598,2.604 -4.048,3.734c-1.45,1.131 -2.991,2.14 -4.608,3.016c-1.616,0.877 -3.303,1.618 -5.042,2.215c-2.607,0.897 -5.325,1.468 -8.072,1.696c-2.742,0.227 -10.043,0.114 -10.977,0.114l0,154.143c-0.037,0.917 -0.138,1.833 -0.113,2.75c0.171,6.431 -2.285,12.405 -3.159,14.02c-1.31,2.421 -5.484,9.89 -16.103,11.321c-1.92,0.258 -3.888,-0.005 -5.759,-0.507c-1.249,-0.336 -2.454,-0.815 -3.592,-1.429c-1.519,-0.82 -1.819,-1.154 -3.165,-2.219l-143.966,-135.799l0,67.502c0,9.257 -7.504,16.761 -16.761,16.761c0,0 0,0 -0.001,0c-9.432,0 -17.078,-7.646 -17.078,-17.078l0,-103.376c-0.028,-0.648 -0.037,-1.298 -0.063,-1.946l0,-58.8c0.038,-0.933 0.038,-1.869 0.115,-2.8c0.232,-2.793 0.811,-5.557 1.722,-8.208c0.607,-1.769 1.359,-3.484 2.249,-5.128c1.334,-2.466 2.975,-4.764 4.873,-6.826c1.899,-2.063 4.054,-3.887 6.401,-5.421c2.346,-1.533 4.883,-2.773 7.535,-3.683c2.651,-0.911 5.415,-1.49 8.208,-1.722c0.931,-0.077 1.867,-0.077 2.8,-0.115c17.748,0 35.496,-0.029 53.243,0c0.785,0.004 1.569,0.02 2.352,0.052c1.623,0.067 3.242,0.198 4.854,0.392c4.249,0.513 8.443,1.471 12.492,2.855c2.903,0.992 5.731,2.203 8.454,3.618c2.524,1.312 4.956,2.8 7.275,4.449c2.499,1.777 4.865,3.742 7.072,5.871c1.986,1.916 3.842,3.965 5.554,6.128c2.258,2.856 4.262,5.911 5.98,9.12c1.686,3.148 3.096,6.443 4.209,9.836c1.295,3.949 2.187,8.029 2.659,12.158c0.17,1.486 0.286,2.977 0.347,4.471c0.032,0.784 0.049,1.568 0.052,2.353c0.001,0.544 0.001,1.087 0,1.631c-0.001,0.34 -0.005,0.68 -0.011,1.019c-0.01,0.545 -0.028,1.089 -0.052,1.632c-0.072,1.617 -0.204,3.231 -0.398,4.837c-0.541,4.478 -1.557,8.897 -3.029,13.16c-0.998,2.889 -2.204,5.706 -3.606,8.422c-1.501,2.911 -3.228,5.705 -5.158,8.351c-1.877,2.573 -3.946,5.005 -6.185,7.271c-2.419,2.449 -5.037,4.702 -7.818,6.731c-2.645,1.928 -5.437,3.653 -8.345,5.154c-3.065,1.581 -6.259,2.914 -9.54,3.979c-4.107,1.334 -8.349,2.247 -12.64,2.724c-1.545,0.172 -3.096,0.287 -4.65,0.346c-0.806,0.031 -1.612,0.045 -2.419,0.047l-5.388,0l97.257,93.605l0,-164.949l41.519,0l-41.519,-37.958l0,-63.562l-68.711,0.744l-38.09,-34.824l-145.414,132.944l-2.906,2.656l43.485,0l1.331,182.88l138.022,0c0,0 32.854,29.415 34.373,30.235c1.138,0.614 2.343,1.093 3.592,1.429c1.552,0.417 3.163,0.606 4.769,0.563c-1.842,0.478 -3.725,0.799 -5.622,0.956c-0.914,0.076 -1.832,0.076 -2.749,0.114Zm-99.517,-178.737l0.003,0.001c15.176,0.004 30.352,0.023 45.528,-0.001l0.012,0l0.009,0l0.088,0l0.04,0c0.297,-0.002 0.593,-0.007 0.888,-0.017l0.012,-0.001l0.037,-0.001l0.084,-0.003l0.023,-0.001c0.056,-0.002 0.113,-0.004 0.169,-0.007c0.058,-0.002 0.116,-0.005 0.174,-0.008l0.018,-0.001l0.036,-0.002l0.07,-0.003l0.053,-0.003l0.033,-0.002l0.025,-0.002l0.038,-0.002l0.094,-0.006l0.034,-0.002l0.009,0c0.057,-0.004 0.114,-0.008 0.171,-0.012l0.011,0l0.035,-0.003l0.091,-0.007l0.037,-0.002l0.027,-0.002l0.034,-0.003l0.051,-0.004l0.067,-0.005l0.038,-0.003l0.019,-0.002l0.024,-0.002l0.135,-0.012l0.012,-0.001l0.003,0l0.147,-0.013l0.021,-0.002l0.018,-0.002l0.038,-0.004l0.071,-0.007l0.048,-0.004l0.032,-0.004l0.028,-0.003l0.04,-0.004l0.085,-0.009l0.036,-0.003l0.012,-0.002c0.057,-0.006 0.114,-0.012 0.17,-0.019l0.007,0l0.028,-0.004l0.106,-0.012l0.031,-0.004l0.023,-0.002l0.034,-0.005l0.059,-0.007l0.046,-0.006l0.048,-0.006l0.052,-0.007l0.048,-0.006l0.041,-0.005l0.047,-0.006l0.058,-0.008l0.047,-0.006l0.036,-0.005l0.046,-0.007l0.066,-0.009l0.045,-0.007l0.029,-0.004l0.046,-0.006l0.078,-0.012l0.04,-0.006l0.022,-0.003l0.046,-0.007l0.092,-0.015l0.032,-0.005l0.016,-0.002l0.046,-0.007l0.11,-0.018l0.021,-0.003l0.008,-0.002l0.047,-0.007l0.132,-0.023l0.005,-0.001l0.001,0c1.095,-0.187 2.17,-0.433 3.221,-0.735l0.006,-0.001l0.005,-0.002l0.077,-0.022l0.092,-0.027l0.013,-0.004l0.009,-0.003l0.063,-0.018l0.095,-0.029l0.02,-0.005l0.011,-0.004l0.051,-0.015l0.098,-0.03l0.026,-0.008l0.012,-0.004l0.04,-0.012l0.1,-0.032l0.034,-0.01l0.012,-0.004l0.03,-0.01l0.103,-0.033l0.04,-0.013l0.011,-0.003l0.021,-0.007l0.108,-0.035l0.046,-0.015l0.008,-0.003l0.013,-0.004l0.118,-0.04l0.046,-0.015l0.004,-0.002c0.06,-0.02 0.12,-0.041 0.18,-0.061l0.098,-0.034l0.06,-0.021l0.015,-0.006l0.008,-0.003c0.05,-0.017 0.099,-0.034 0.148,-0.052l0.017,-0.006l0.016,-0.006c0.048,-0.017 0.095,-0.034 0.143,-0.052l0.014,-0.005l0.023,-0.008l0.044,-0.017l0.09,-0.033l0.015,-0.005l0.027,-0.01l0.063,-0.024l0.047,-0.018l0.034,-0.013l0.016,-0.006l0.097,-0.037l0.023,-0.009l0.035,-0.013l0.03,-0.012c0.036,-0.014 0.073,-0.028 0.109,-0.043l0.031,-0.012l0.045,-0.018l0.017,-0.006l0.041,-0.017l0.067,-0.027l0.065,-0.026l0.02,-0.008l0.017,-0.007l0.068,-0.027l0.101,-0.042l0.006,-0.002l0.002,-0.001c0.994,-0.411 1.961,-0.873 2.898,-1.385l0.001,-0.001l0.013,-0.007l0.095,-0.051l0.055,-0.031l0.019,-0.011l0.027,-0.014l0.057,-0.032l0.054,-0.031l0.043,-0.024l0.021,-0.012l0.04,-0.022l0.025,-0.015c0.036,-0.02 0.071,-0.04 0.107,-0.06l0.025,-0.015l0.029,-0.017c0.039,-0.022 0.077,-0.044 0.115,-0.066l0.013,-0.008l0.027,-0.016l0.048,-0.028l0.059,-0.035l0.022,-0.012l0.007,-0.005c0.043,-0.025 0.086,-0.051 0.129,-0.077l0.019,-0.011l0.013,-0.008c0.043,-0.026 0.087,-0.052 0.13,-0.078l0.012,-0.007l0.015,-0.01c0.045,-0.027 0.09,-0.054 0.135,-0.082l0.004,-0.003l0.01,-0.006l0.067,-0.041l0.064,-0.04l0.013,-0.008l0.005,-0.003c0.045,-0.028 0.089,-0.056 0.133,-0.084l0.015,-0.009l0.015,-0.009c0.043,-0.028 0.086,-0.056 0.13,-0.083l0.007,-0.005l0.018,-0.011l0.058,-0.038l0.055,-0.036l0.021,-0.013l0.009,-0.006c0.04,-0.026 0.081,-0.052 0.121,-0.079l0.021,-0.014l0.022,-0.014c0.038,-0.026 0.077,-0.051 0.115,-0.077l0.013,-0.008l0.032,-0.022l0.043,-0.029l0.04,-0.026l0.035,-0.024l0.022,-0.015l0.083,-0.056l0.014,-0.01l0.03,-0.02l0.032,-0.022l0.013,-0.009l0.054,-0.038l0.05,-0.034l0.05,-0.035l0.024,-0.016l0.022,-0.016l0.052,-0.036l0.083,-0.059l0.02,-0.014l0.004,-0.002l0.04,-0.029l0.043,-0.03l0.002,-0.002l0.008,-0.006l0.093,-0.067l0.068,-0.049l0.007,-0.004l0.006,-0.005c0.726,-0.526 1.427,-1.085 2.102,-1.673l0.01,-0.008l0.007,-0.007l0.054,-0.046l0.101,-0.09l0.001,0l0,0l0.033,-0.029l0.039,-0.035l0.009,-0.008l0.027,-0.025l0.059,-0.052l0.047,-0.042l0.028,-0.026l0.02,-0.018l0.038,-0.034l0.021,-0.019c0.03,-0.028 0.059,-0.055 0.089,-0.082l0.023,-0.021l0.029,-0.026l0.02,-0.019l0.056,-0.052l0.027,-0.025l0.027,-0.025l0.049,-0.046l0.031,-0.029l0.024,-0.023l0.014,-0.013c0.034,-0.032 0.068,-0.065 0.102,-0.097l0.015,-0.013l0.019,-0.019l0.03,-0.029l0.074,-0.071l0.006,-0.006l0.01,-0.009l0.066,-0.065l0.038,-0.036l0.015,-0.015l0.01,-0.009c0.036,-0.036 0.073,-0.072 0.109,-0.108l0.01,-0.009l0.013,-0.013c0.038,-0.038 0.076,-0.076 0.114,-0.114c0.038,-0.038 0.076,-0.076 0.114,-0.114l0.013,-0.013l0.009,-0.01c0.036,-0.036 0.072,-0.073 0.108,-0.109l0.009,-0.01l0.015,-0.015l0.036,-0.037l0.065,-0.067l0.009,-0.01l0.006,-0.006l0.071,-0.073l0.029,-0.031l0.018,-0.019l0.014,-0.015c0.032,-0.034 0.065,-0.068 0.097,-0.102l0.013,-0.014l0.023,-0.024l0.029,-0.031l0.046,-0.049l0.025,-0.027l0.025,-0.027l0.052,-0.056l0.019,-0.02l0.026,-0.029l0.021,-0.023c0.027,-0.03 0.054,-0.059 0.081,-0.089l0.02,-0.021l0.034,-0.038l0.018,-0.02l0.026,-0.028l0.042,-0.047l0.052,-0.059l0.025,-0.027l0.008,-0.009l0.035,-0.039l0.029,-0.033l0,0l0,-0.001l0.09,-0.101l0.046,-0.054l0.007,-0.007l0.008,-0.01c0.588,-0.675 1.147,-1.376 1.673,-2.102l0.005,-0.006l0.004,-0.007l0.049,-0.067l0.067,-0.094l0.006,-0.008l0.002,-0.002l0.03,-0.043l0.028,-0.04l0.003,-0.003l0.014,-0.021l0.059,-0.083l0.036,-0.052l0.015,-0.022l0.017,-0.024l0.035,-0.05l0.034,-0.05l0.038,-0.054l0.009,-0.013l0.022,-0.032l0.02,-0.03l0.01,-0.014l0.056,-0.083l0.015,-0.022l0.024,-0.035l0.026,-0.04l0.029,-0.043l0.022,-0.032l0.008,-0.013c0.026,-0.038 0.051,-0.077 0.077,-0.115l0.014,-0.022l0.014,-0.021c0.027,-0.04 0.053,-0.081 0.079,-0.121l0.006,-0.009l0.013,-0.021l0.036,-0.055l0.038,-0.058l0.011,-0.018l0.005,-0.007c0.027,-0.044 0.055,-0.087 0.083,-0.13l0.009,-0.015l0.009,-0.015c0.028,-0.044 0.056,-0.088 0.084,-0.133l0.003,-0.005l0.008,-0.013l0.04,-0.064l0.041,-0.066l0.006,-0.011l0.003,-0.004c0.028,-0.045 0.055,-0.09 0.082,-0.135l0.01,-0.015l0.007,-0.012c0.026,-0.043 0.052,-0.087 0.078,-0.13l0.008,-0.013l0.011,-0.019c0.026,-0.042 0.052,-0.086 0.077,-0.129l0.005,-0.007l0.012,-0.022l0.035,-0.059l0.028,-0.048l0.016,-0.027l0.008,-0.013c0.022,-0.038 0.044,-0.076 0.066,-0.115l0.017,-0.029l0.014,-0.025c0.021,-0.036 0.041,-0.071 0.061,-0.107l0.015,-0.025l0.022,-0.04l0.012,-0.021l0.024,-0.043l0.031,-0.054l0.032,-0.057l0.014,-0.027l0.011,-0.019l0.03,-0.055l0.052,-0.095l0.007,-0.013l0.001,-0.001c0.511,-0.937 0.974,-1.904 1.385,-2.898l0.001,-0.002l0.002,-0.006l0.042,-0.101l0.027,-0.068l0.007,-0.017l0.008,-0.02l0.026,-0.065l0.027,-0.067l0.016,-0.041l0.007,-0.016l0.018,-0.046l0.012,-0.031c0.014,-0.036 0.029,-0.073 0.043,-0.109l0.012,-0.03l0.013,-0.035l0.009,-0.023l0.037,-0.097l0.006,-0.016l0.013,-0.034l0.018,-0.047l0.023,-0.063l0.011,-0.027l0.005,-0.015l0.033,-0.09l0.017,-0.044l0.008,-0.023l0.005,-0.014c0.018,-0.048 0.035,-0.095 0.052,-0.143l0.006,-0.016l0.006,-0.017c0.017,-0.049 0.035,-0.098 0.052,-0.147l0.003,-0.009l0.006,-0.015c0.018,-0.052 0.036,-0.105 0.055,-0.158l0.059,-0.174l0.002,-0.006l0.002,-0.004l0.015,-0.046l0.04,-0.118l0.004,-0.013l0.003,-0.008l0.015,-0.046l0.035,-0.108l0.007,-0.021l0.003,-0.01l0.013,-0.041l0.033,-0.103l0.01,-0.03l0.003,-0.012l0.011,-0.034l0.031,-0.1l0.013,-0.04l0.004,-0.012l0.008,-0.026l0.03,-0.098l0.015,-0.051l0.003,-0.011l0.006,-0.02l0.029,-0.095l0.018,-0.063l0.003,-0.009l0.004,-0.012l0.027,-0.093l0.022,-0.077l0.002,-0.005l0.001,-0.006c0.302,-1.051 0.548,-2.126 0.735,-3.22l0,-0.002l0.001,-0.005l0.023,-0.132l0.007,-0.047l0.002,-0.008l0.003,-0.021l0.018,-0.11l0.007,-0.046l0.002,-0.016l0.005,-0.032l0.015,-0.091l0.007,-0.047l0.003,-0.022l0.006,-0.04l0.012,-0.078l0.006,-0.046l0.004,-0.029l0.007,-0.045l0.009,-0.066l0.007,-0.046l0.005,-0.036l0.006,-0.047l0.008,-0.058l0.006,-0.047l0.005,-0.041l0.006,-0.047l0.007,-0.053l0.006,-0.048l0.006,-0.045l0.007,-0.06l0.004,-0.034l0.003,-0.023l0.004,-0.031l0.012,-0.106l0.004,-0.028l0,-0.007c0.007,-0.056 0.013,-0.113 0.019,-0.17l0.001,-0.012l0.004,-0.036l0.009,-0.085l0.004,-0.04l0.003,-0.028l0.003,-0.032l0.005,-0.048l0.007,-0.071l0.004,-0.038l0.002,-0.017l0.002,-0.022l0.013,-0.147l0,-0.003l0.001,-0.012l0.012,-0.135l0.002,-0.024l0.002,-0.019l0.003,-0.038l0.005,-0.067l0.004,-0.051l0.003,-0.034l0.002,-0.027l0.002,-0.037l0.007,-0.091l0.002,-0.035l0.001,-0.011c0.004,-0.057 0.008,-0.114 0.012,-0.171l0,-0.009l0.002,-0.033l0.006,-0.095l0.002,-0.038l0.002,-0.025l0.001,-0.033l0.003,-0.053l0.004,-0.07l0.002,-0.036l0.001,-0.018l0.001,-0.025l0.007,-0.148c0,0 0.007,-0.157 0.007,-0.157l0,-0.013l0.001,-0.022l0.003,-0.085l0.001,-0.037l0.001,-0.012c0.01,-0.295 0.015,-0.591 0.017,-0.887l0,-0.041l0,-0.083l0,-0.014l0,-0.02c0.001,-0.404 0.001,-0.807 0,-1.211l0,-0.001c0,-0.381 -0.008,-0.759 -0.023,-1.136l-0.002,-0.052l-0.001,-0.027l-0.002,-0.029l-0.001,-0.038l-0.003,-0.05l-0.002,-0.057l-0.002,-0.031l-0.001,-0.02l-0.001,-0.029l-0.006,-0.107l-0.001,-0.021l-0.001,-0.004c-0.003,-0.053 -0.006,-0.106 -0.009,-0.158l-0.001,-0.014l-0.002,-0.033l-0.005,-0.073l-0.003,-0.041l-0.002,-0.028l-0.002,-0.028l-0.002,-0.04l-0.006,-0.073l-0.002,-0.035l-0.001,-0.013c-0.004,-0.052 -0.009,-0.104 -0.013,-0.156l0,-0.006l-0.003,-0.026l-0.008,-0.1l-0.002,-0.027l-0.002,-0.021l-0.003,-0.034l-0.005,-0.055l-0.005,-0.053l-0.003,-0.033l-0.002,-0.022l-0.003,-0.028l-0.01,-0.095l-0.002,-0.029l-0.001,-0.006c-0.005,-0.052 -0.011,-0.104 -0.016,-0.156l-0.002,-0.012l-0.003,-0.033l-0.009,-0.078l-0.004,-0.037l-0.003,-0.025l-0.003,-0.029l-0.005,-0.045l-0.008,-0.066l-0.004,-0.033l-0.002,-0.016c-0.007,-0.052 -0.013,-0.105 -0.02,-0.157c0,0 -0.022,-0.172 -0.022,-0.172l-0.001,-0.004l0,-0.002l-0.005,-0.039l-0.018,-0.128l-0.001,-0.007l0,-0.003l-0.005,-0.037l-0.018,-0.124l-0.002,-0.013l-0.001,-0.004l-0.004,-0.029l-0.019,-0.126l-0.003,-0.018l0,-0.004l-0.004,-0.022l-0.02,-0.127l-0.004,-0.025l0,-0.003l-0.003,-0.014l-0.02,-0.129l-0.006,-0.032l0,-0.002l-0.001,-0.008l-0.022,-0.128l-0.007,-0.041l0,0l-0.001,-0.002c-0.206,-1.186 -0.488,-2.347 -0.84,-3.476l-0.002,-0.005l-0.007,-0.022l-0.033,-0.107l-0.01,-0.03l-0.004,-0.012l-0.011,-0.035l-0.027,-0.084l-0.011,-0.033l-0.006,-0.019l-0.014,-0.041l-0.022,-0.068l-0.012,-0.035l-0.008,-0.026l-0.015,-0.043l-0.019,-0.057l-0.013,-0.038l-0.011,-0.032l-0.014,-0.041l-0.017,-0.049l-0.014,-0.042l-0.013,-0.038l-0.013,-0.034l-0.015,-0.045l-0.022,-0.061l-0.015,-0.042l-0.009,-0.025l-0.011,-0.032l-0.03,-0.084l-0.015,-0.042l-0.005,-0.012l-0.007,-0.02l-0.053,-0.142l-0.002,-0.007l-0.001,-0.001c-0.022,-0.06 -0.045,-0.12 -0.067,-0.18l-0.001,0l-0.001,-0.004l-0.054,-0.14l-0.012,-0.03l-0.002,-0.007l-0.007,-0.018l-0.04,-0.102l-0.02,-0.049l-0.004,-0.011l-0.006,-0.016l-0.032,-0.08l-0.03,-0.074l-0.004,-0.01l-0.004,-0.009c-0.437,-1.077 -0.94,-2.12 -1.504,-3.125l-0.003,-0.005l-0.005,-0.009l-0.047,-0.084l-0.035,-0.062l-0.008,-0.013l-0.008,-0.014l-0.032,-0.056l-0.046,-0.079l-0.011,-0.019l-0.006,-0.011l-0.02,-0.035l-0.062,-0.104l-0.01,-0.017l-0.002,-0.005c-0.063,-0.107 -0.127,-0.213 -0.191,-0.318l-0.006,-0.01l-0.021,-0.034l-0.051,-0.083l-0.017,-0.027l-0.012,-0.021l-0.023,-0.037l-0.035,-0.057l-0.026,-0.04l-0.019,-0.03l-0.036,-0.058l-0.008,-0.012l-0.003,-0.006c-0.026,-0.04 -0.052,-0.081 -0.078,-0.121l-0.008,-0.014l-0.01,-0.014c-0.025,-0.04 -0.051,-0.08 -0.077,-0.12l-0.003,-0.005l-0.01,-0.015l-0.039,-0.06l-0.029,-0.044l-0.013,-0.02l-0.008,-0.011c-0.024,-0.037 -0.048,-0.074 -0.073,-0.111l-0.011,-0.017l-0.015,-0.023l-0.019,-0.027l-0.044,-0.066l-0.015,-0.022l-0.02,-0.029l-0.034,-0.05l-0.018,-0.027l-0.021,-0.031l-0.014,-0.02c-0.021,-0.031 -0.043,-0.063 -0.064,-0.094l-0.016,-0.023l-0.025,-0.036l-0.014,-0.019l-0.023,-0.033l-0.033,-0.048l-0.039,-0.055l-0.021,-0.029l-0.008,-0.011c-0.054,-0.076 -0.108,-0.152 -0.162,-0.228l-0.006,-0.008l-0.008,-0.01c-0.549,-0.757 -1.135,-1.486 -1.757,-2.183l-0.008,-0.009l-0.008,-0.008l-0.046,-0.051l-0.069,-0.077l-0.012,-0.014l-0.002,-0.002l-0.028,-0.03l-0.031,-0.034l-0.007,-0.009l-0.026,-0.028l-0.047,-0.052l-0.038,-0.041l-0.026,-0.027l-0.018,-0.02l-0.031,-0.033l-0.017,-0.019c-0.026,-0.027 -0.052,-0.055 -0.078,-0.083l-0.018,-0.019l-0.024,-0.026l-0.021,-0.022l-0.046,-0.048l-0.023,-0.024l-0.02,-0.021l-0.05,-0.053l-0.025,-0.025l-0.019,-0.02l-0.014,-0.014c-0.031,-0.032 -0.061,-0.064 -0.092,-0.095l-0.01,-0.01l-0.016,-0.017l-0.035,-0.036l-0.053,-0.053l-0.012,-0.012l-0.003,-0.004c-0.034,-0.034 -0.067,-0.068 -0.101,-0.101l-0.012,-0.013l-0.011,-0.011c-0.034,-0.033 -0.068,-0.067 -0.102,-0.101l-0.005,-0.004l-0.01,-0.011l-0.049,-0.047l-0.025,-0.025l-0.034,-0.033l-0.049,-0.048l-0.031,-0.03l-0.016,-0.016l-0.022,-0.022l-0.073,-0.069l-0.029,-0.028l-0.007,-0.007c-0.089,-0.085 -0.178,-0.169 -0.268,-0.253l-0.008,-0.006l-0.022,-0.02l-0.075,-0.071l-0.032,-0.029l-0.013,-0.012l-0.021,-0.019l-0.057,-0.051l-0.049,-0.045l-0.017,-0.016l-0.014,-0.012l-0.042,-0.038l-0.076,-0.068l-0.013,-0.011l-0.006,-0.005c-0.191,-0.17 -0.384,-0.338 -0.58,-0.503l-0.002,-0.001l-0.002,-0.002l-0.072,-0.061l-0.075,-0.061l0,-0.001l0,0c-0.498,-0.413 -1.01,-0.808 -1.537,-1.186l-0.001,-0.001l-0.001,-0.001l-0.092,-0.066l-0.057,-0.04l-0.008,-0.005l-0.008,-0.006l-0.063,-0.045l-0.077,-0.053l-0.011,-0.008l-0.007,-0.005l-0.041,-0.029l-0.107,-0.073l-0.005,-0.004l-0.001,-0.001c-0.105,-0.072 -0.211,-0.143 -0.317,-0.213l-0.004,-0.003l-0.016,-0.011l-0.101,-0.067l-0.03,-0.019l-0.015,-0.01l-0.029,-0.019l-0.065,-0.042l-0.043,-0.029l-0.026,-0.016l-0.026,-0.017l-0.044,-0.029l-0.059,-0.037l-0.034,-0.022l-0.02,-0.012l-0.028,-0.018l-0.079,-0.05l-0.038,-0.024l-0.01,-0.006c-0.102,-0.064 -0.204,-0.127 -0.307,-0.189l-0.009,-0.005l-0.038,-0.023l-0.085,-0.052l-0.022,-0.013l-0.016,-0.01l-0.037,-0.022l-0.068,-0.04l-0.036,-0.021l-0.021,-0.013l-0.031,-0.017l-0.056,-0.033l-0.051,-0.03l-0.025,-0.015l-0.022,-0.012l-0.046,-0.027l-0.072,-0.041l-0.024,-0.014l-0.012,-0.007l-0.037,-0.021l-0.104,-0.058l-0.011,-0.006l-0.003,-0.002c-1.087,-0.61 -2.221,-1.148 -3.393,-1.608l-0.008,-0.003l-0.018,-0.007l-0.092,-0.036l-0.048,-0.019l-0.018,-0.006l-0.025,-0.01l-0.067,-0.026l-0.057,-0.021l-0.027,-0.01l-0.025,-0.01l-0.048,-0.018l-0.068,-0.025l-0.035,-0.013l-0.022,-0.008l-0.034,-0.012l-0.079,-0.029l-0.043,-0.016l-0.015,-0.005l-0.021,-0.008l-0.098,-0.035l-0.043,-0.015l-0.008,-0.003c-0.112,-0.039 -0.224,-0.078 -0.336,-0.116l-0.004,-0.001l-0.042,-0.014l-0.109,-0.037l-0.011,-0.004l-0.008,-0.002l-0.042,-0.014l-0.1,-0.033l-0.019,-0.006l-0.01,-0.003l-0.037,-0.012l-0.095,-0.03l-0.027,-0.009l-0.011,-0.004l-0.031,-0.009l-0.093,-0.029l-0.036,-0.012l-0.012,-0.003l-0.024,-0.008l-0.09,-0.027l-0.047,-0.014l-0.01,-0.003l-0.018,-0.006l-0.088,-0.026l-0.058,-0.017l-0.008,-0.003l-0.011,-0.003l-0.086,-0.025l-0.07,-0.02l-0.005,-0.002l-0.006,-0.001c-0.967,-0.279 -1.957,-0.505 -2.965,-0.677l-0.001,0l-0.004,-0.001l-0.122,-0.021l-0.043,-0.007l-0.008,-0.001l-0.019,-0.003l-0.101,-0.016l-0.043,-0.007l-0.014,-0.002l-0.03,-0.005l-0.084,-0.013l-0.043,-0.006l-0.02,-0.004l-0.037,-0.005l-0.072,-0.011l-0.042,-0.006l-0.027,-0.004l-0.041,-0.005l-0.061,-0.009l-0.043,-0.006l-0.033,-0.005l-0.043,-0.005l-0.053,-0.008l-0.043,-0.005l-0.038,-0.005l-0.044,-0.006l-0.048,-0.006l-0.045,-0.006l-0.041,-0.005l-0.055,-0.007l-0.032,-0.004l-0.02,-0.002l-0.029,-0.004l-0.098,-0.011l-0.026,-0.003l-0.006,-0.001c-0.052,-0.006 -0.104,-0.011 -0.156,-0.017l-0.011,-0.001l-0.034,-0.004l-0.078,-0.008l-0.036,-0.004l-0.026,-0.002l-0.03,-0.003l-0.044,-0.005l-0.065,-0.006l-0.035,-0.004l-0.017,-0.001l-0.02,-0.002l-0.135,-0.012l-0.003,-0.001l-0.011,-0.001l-0.124,-0.01l-0.022,-0.002l-0.017,-0.002l-0.035,-0.002l-0.062,-0.005l-0.047,-0.004l-0.031,-0.002l-0.025,-0.002l-0.034,-0.003l-0.084,-0.006l-0.033,-0.002l-0.009,-0.001c-0.053,-0.004 -0.105,-0.007 -0.158,-0.01l-0.008,-0.001l-0.031,-0.002l-0.087,-0.005l-0.035,-0.002l-0.023,-0.002l-0.03,-0.001l-0.049,-0.003l-0.065,-0.003l-0.032,-0.002l-0.017,-0.001c-0.053,-0.003 -0.107,-0.005 -0.16,-0.007c-0.052,-0.003 -0.104,-0.005 -0.156,-0.007l-0.021,-0.001l-0.078,-0.002l-0.033,-0.002l-0.012,0c-0.271,-0.009 -0.544,-0.014 -0.817,-0.016l-0.037,0l-0.08,0l-0.009,0l-0.013,0c-17.677,-0.028 -35.355,0 -53.033,0l0,58.8l5.124,0Z" style="fill:#fe4d01;"/></g></svg>